G04 #@! TF.GenerationSoftware,KiCad,Pcbnew,(5.1.4)-1*
G04 #@! TF.CreationDate,2020-11-20T09:45:29-08:00*
G04 #@! TF.ProjectId,_autosave-_autosave-_autosave-_autosave-uwu-55,5f617574-6f73-4617-9665-2d5f6175746f,rev?*
G04 #@! TF.SameCoordinates,Original*
G04 #@! TF.FileFunction,Other,Fab,Top*
%FSLAX46Y46*%
G04 Gerber Fmt 4.6, Leading zero omitted, Abs format (unit mm)*
G04 Created by KiCad (PCBNEW (5.1.4)-1) date 2020-11-20 09:45:29*
%MOMM*%
%LPD*%
G04 APERTURE LIST*
%ADD10C,0.150000*%
%ADD11C,0.100000*%
G04 APERTURE END LIST*
D10*
X255341380Y-66396809D02*
X254341380Y-66396809D01*
X254341380Y-66015857D01*
X254389000Y-65920619D01*
X254436619Y-65873000D01*
X254531857Y-65825380D01*
X254674714Y-65825380D01*
X254769952Y-65873000D01*
X254817571Y-65920619D01*
X254865190Y-66015857D01*
X254865190Y-66396809D01*
X255341380Y-65396809D02*
X254674714Y-65396809D01*
X254865190Y-65396809D02*
X254769952Y-65349190D01*
X254722333Y-65301571D01*
X254674714Y-65206333D01*
X254674714Y-65111095D01*
X255341380Y-64634904D02*
X255293761Y-64730142D01*
X255246142Y-64777761D01*
X255150904Y-64825380D01*
X254865190Y-64825380D01*
X254769952Y-64777761D01*
X254722333Y-64730142D01*
X254674714Y-64634904D01*
X254674714Y-64492047D01*
X254722333Y-64396809D01*
X254769952Y-64349190D01*
X254865190Y-64301571D01*
X255150904Y-64301571D01*
X255246142Y-64349190D01*
X255293761Y-64396809D01*
X255341380Y-64492047D01*
X255341380Y-64634904D01*
X255341380Y-63873000D02*
X254341380Y-63873000D01*
X255055666Y-63539666D01*
X254341380Y-63206333D01*
X255341380Y-63206333D01*
X255341380Y-62730142D02*
X254674714Y-62730142D01*
X254341380Y-62730142D02*
X254389000Y-62777761D01*
X254436619Y-62730142D01*
X254389000Y-62682523D01*
X254341380Y-62730142D01*
X254436619Y-62730142D01*
X255293761Y-61825380D02*
X255341380Y-61920619D01*
X255341380Y-62111095D01*
X255293761Y-62206333D01*
X255246142Y-62253952D01*
X255150904Y-62301571D01*
X254865190Y-62301571D01*
X254769952Y-62253952D01*
X254722333Y-62206333D01*
X254674714Y-62111095D01*
X254674714Y-61920619D01*
X254722333Y-61825380D01*
X255341380Y-61396809D02*
X254674714Y-61396809D01*
X254865190Y-61396809D02*
X254769952Y-61349190D01*
X254722333Y-61301571D01*
X254674714Y-61206333D01*
X254674714Y-61111095D01*
X255341380Y-60634904D02*
X255293761Y-60730142D01*
X255246142Y-60777761D01*
X255150904Y-60825380D01*
X254865190Y-60825380D01*
X254769952Y-60777761D01*
X254722333Y-60730142D01*
X254674714Y-60634904D01*
X254674714Y-60492047D01*
X254722333Y-60396809D01*
X254769952Y-60349190D01*
X254865190Y-60301571D01*
X255150904Y-60301571D01*
X255246142Y-60349190D01*
X255293761Y-60396809D01*
X255341380Y-60492047D01*
X255341380Y-60634904D01*
D11*
X160214583Y-49921666D02*
X159981250Y-49588333D01*
X159814583Y-49921666D02*
X159814583Y-49221666D01*
X160081250Y-49221666D01*
X160147916Y-49255000D01*
X160181250Y-49288333D01*
X160214583Y-49355000D01*
X160214583Y-49455000D01*
X160181250Y-49521666D01*
X160147916Y-49555000D01*
X160081250Y-49588333D01*
X159814583Y-49588333D01*
X160514583Y-49921666D02*
X160514583Y-49455000D01*
X160514583Y-49221666D02*
X160481250Y-49255000D01*
X160514583Y-49288333D01*
X160547916Y-49255000D01*
X160514583Y-49221666D01*
X160514583Y-49288333D01*
X160847916Y-49455000D02*
X160847916Y-49921666D01*
X160847916Y-49521666D02*
X160881250Y-49488333D01*
X160947916Y-49455000D01*
X161047916Y-49455000D01*
X161114583Y-49488333D01*
X161147916Y-49555000D01*
X161147916Y-49921666D01*
X161781250Y-49455000D02*
X161781250Y-50021666D01*
X161747916Y-50088333D01*
X161714583Y-50121666D01*
X161647916Y-50155000D01*
X161547916Y-50155000D01*
X161481250Y-50121666D01*
X161781250Y-49888333D02*
X161714583Y-49921666D01*
X161581250Y-49921666D01*
X161514583Y-49888333D01*
X161481250Y-49855000D01*
X161447916Y-49788333D01*
X161447916Y-49588333D01*
X161481250Y-49521666D01*
X161514583Y-49488333D01*
X161581250Y-49455000D01*
X161714583Y-49455000D01*
X161781250Y-49488333D01*
X162081250Y-49288333D02*
X162114583Y-49255000D01*
X162181250Y-49221666D01*
X162347916Y-49221666D01*
X162414583Y-49255000D01*
X162447916Y-49288333D01*
X162481250Y-49355000D01*
X162481250Y-49421666D01*
X162447916Y-49521666D01*
X162047916Y-49921666D01*
X162481250Y-49921666D01*
X160214583Y-52921666D02*
X159981250Y-52588333D01*
X159814583Y-52921666D02*
X159814583Y-52221666D01*
X160081250Y-52221666D01*
X160147916Y-52255000D01*
X160181250Y-52288333D01*
X160214583Y-52355000D01*
X160214583Y-52455000D01*
X160181250Y-52521666D01*
X160147916Y-52555000D01*
X160081250Y-52588333D01*
X159814583Y-52588333D01*
X160514583Y-52921666D02*
X160514583Y-52455000D01*
X160514583Y-52221666D02*
X160481250Y-52255000D01*
X160514583Y-52288333D01*
X160547916Y-52255000D01*
X160514583Y-52221666D01*
X160514583Y-52288333D01*
X160847916Y-52455000D02*
X160847916Y-52921666D01*
X160847916Y-52521666D02*
X160881250Y-52488333D01*
X160947916Y-52455000D01*
X161047916Y-52455000D01*
X161114583Y-52488333D01*
X161147916Y-52555000D01*
X161147916Y-52921666D01*
X161781250Y-52455000D02*
X161781250Y-53021666D01*
X161747916Y-53088333D01*
X161714583Y-53121666D01*
X161647916Y-53155000D01*
X161547916Y-53155000D01*
X161481250Y-53121666D01*
X161781250Y-52888333D02*
X161714583Y-52921666D01*
X161581250Y-52921666D01*
X161514583Y-52888333D01*
X161481250Y-52855000D01*
X161447916Y-52788333D01*
X161447916Y-52588333D01*
X161481250Y-52521666D01*
X161514583Y-52488333D01*
X161581250Y-52455000D01*
X161714583Y-52455000D01*
X161781250Y-52488333D01*
X162481250Y-52921666D02*
X162081250Y-52921666D01*
X162281250Y-52921666D02*
X162281250Y-52221666D01*
X162214583Y-52321666D01*
X162147916Y-52388333D01*
X162081250Y-52421666D01*
X160447916Y-55971666D02*
X160847916Y-55971666D01*
X160647916Y-56671666D02*
X160647916Y-55971666D01*
X161081250Y-56671666D02*
X161081250Y-56205000D01*
X161081250Y-55971666D02*
X161047916Y-56005000D01*
X161081250Y-56038333D01*
X161114583Y-56005000D01*
X161081250Y-55971666D01*
X161081250Y-56038333D01*
X161414583Y-56205000D02*
X161414583Y-56905000D01*
X161414583Y-56238333D02*
X161481250Y-56205000D01*
X161614583Y-56205000D01*
X161681250Y-56238333D01*
X161714583Y-56271666D01*
X161747916Y-56338333D01*
X161747916Y-56538333D01*
X161714583Y-56605000D01*
X161681250Y-56638333D01*
X161614583Y-56671666D01*
X161481250Y-56671666D01*
X161414583Y-56638333D01*
X159831250Y-58038333D02*
X159931250Y-58071666D01*
X160097916Y-58071666D01*
X160164583Y-58038333D01*
X160197916Y-58005000D01*
X160231250Y-57938333D01*
X160231250Y-57871666D01*
X160197916Y-57805000D01*
X160164583Y-57771666D01*
X160097916Y-57738333D01*
X159964583Y-57705000D01*
X159897916Y-57671666D01*
X159864583Y-57638333D01*
X159831250Y-57571666D01*
X159831250Y-57505000D01*
X159864583Y-57438333D01*
X159897916Y-57405000D01*
X159964583Y-57371666D01*
X160131250Y-57371666D01*
X160231250Y-57405000D01*
X160631250Y-58071666D02*
X160564583Y-58038333D01*
X160531250Y-57971666D01*
X160531250Y-57371666D01*
X161164583Y-58038333D02*
X161097916Y-58071666D01*
X160964583Y-58071666D01*
X160897916Y-58038333D01*
X160864583Y-57971666D01*
X160864583Y-57705000D01*
X160897916Y-57638333D01*
X160964583Y-57605000D01*
X161097916Y-57605000D01*
X161164583Y-57638333D01*
X161197916Y-57705000D01*
X161197916Y-57771666D01*
X160864583Y-57838333D01*
X161764583Y-58038333D02*
X161697916Y-58071666D01*
X161564583Y-58071666D01*
X161497916Y-58038333D01*
X161464583Y-57971666D01*
X161464583Y-57705000D01*
X161497916Y-57638333D01*
X161564583Y-57605000D01*
X161697916Y-57605000D01*
X161764583Y-57638333D01*
X161797916Y-57705000D01*
X161797916Y-57771666D01*
X161464583Y-57838333D01*
X162031250Y-57605000D02*
X162197916Y-58071666D01*
X162364583Y-57605000D01*
X162897916Y-58038333D02*
X162831250Y-58071666D01*
X162697916Y-58071666D01*
X162631250Y-58038333D01*
X162597916Y-57971666D01*
X162597916Y-57705000D01*
X162631250Y-57638333D01*
X162697916Y-57605000D01*
X162831250Y-57605000D01*
X162897916Y-57638333D01*
X162931250Y-57705000D01*
X162931250Y-57771666D01*
X162597916Y-57838333D01*
M02*
