G04 #@! TF.GenerationSoftware,KiCad,Pcbnew,(5.1.4)-1*
G04 #@! TF.CreationDate,2020-11-20T09:45:29-08:00*
G04 #@! TF.ProjectId,_autosave-_autosave-_autosave-_autosave-uwu-55,5f617574-6f73-4617-9665-2d5f6175746f,rev?*
G04 #@! TF.SameCoordinates,Original*
G04 #@! TF.FileFunction,Paste,Bot*
G04 #@! TF.FilePolarity,Positive*
%FSLAX46Y46*%
G04 Gerber Fmt 4.6, Leading zero omitted, Abs format (unit mm)*
G04 Created by KiCad (PCBNEW (5.1.4)-1) date 2020-11-20 09:45:29*
%MOMM*%
%LPD*%
G04 APERTURE LIST*
%ADD10R,1.200000X1.600000*%
G04 APERTURE END LIST*
D10*
X266319000Y-87125000D03*
X266319000Y-84325000D03*
X302006000Y-106175000D03*
X302006000Y-103375000D03*
X279400000Y-68075000D03*
X279400000Y-65275000D03*
X278257000Y-129987500D03*
X278257000Y-127187500D03*
X297307000Y-129987500D03*
X297307000Y-127187500D03*
X254381000Y-68075000D03*
X254381000Y-65275000D03*
X259207000Y-129987500D03*
X259207000Y-127187500D03*
X251968000Y-106175000D03*
X251968000Y-103375000D03*
X240157000Y-87125000D03*
X240157000Y-84325000D03*
X302006000Y-68075000D03*
X302006000Y-65275000D03*
X235331000Y-68075000D03*
X235331000Y-65275000D03*
X302006000Y-87125000D03*
X302006000Y-84325000D03*
X232918000Y-125225000D03*
X232918000Y-122425000D03*
X278257000Y-110937500D03*
X278257000Y-108137500D03*
X163957000Y-87125000D03*
X163957000Y-84325000D03*
X216281000Y-68075000D03*
X216281000Y-65275000D03*
X144907000Y-87125000D03*
X144907000Y-84325000D03*
X192532000Y-106175000D03*
X192532000Y-103375000D03*
X178181000Y-68075000D03*
X178181000Y-65275000D03*
X211455000Y-125225000D03*
X211455000Y-122425000D03*
X140081000Y-68075000D03*
X140081000Y-65275000D03*
X202057000Y-87125000D03*
X202057000Y-84325000D03*
X230632000Y-106175000D03*
X230632000Y-103375000D03*
X183007000Y-87125000D03*
X183007000Y-84325000D03*
X173482000Y-106175000D03*
X173482000Y-103375000D03*
X190119000Y-125225000D03*
X190119000Y-122425000D03*
X154432000Y-106175000D03*
X154432000Y-103375000D03*
X159131000Y-68075000D03*
X159131000Y-65275000D03*
X156718000Y-125225000D03*
X156718000Y-122425000D03*
X197231000Y-68075000D03*
X197231000Y-65275000D03*
X221107000Y-87125000D03*
X221107000Y-84325000D03*
X211582000Y-106175000D03*
X211582000Y-103375000D03*
M02*
