G04 #@! TF.GenerationSoftware,KiCad,Pcbnew,(5.1.4)-1*
G04 #@! TF.CreationDate,2020-11-20T09:34:24-08:00*
G04 #@! TF.ProjectId,_autosave-_autosave-_autosave-_autosave-uwu-55,5f617574-6f73-4617-9665-2d5f6175746f,rev?*
G04 #@! TF.SameCoordinates,Original*
G04 #@! TF.FileFunction,Profile,NP*
%FSLAX46Y46*%
G04 Gerber Fmt 4.6, Leading zero omitted, Abs format (unit mm)*
G04 Created by KiCad (PCBNEW (5.1.4)-1) date 2020-11-20 09:34:24*
%MOMM*%
%LPD*%
G04 APERTURE LIST*
%ADD10C,0.050000*%
G04 APERTURE END LIST*
D10*
X-51593750Y-55562500D02*
X-34131250Y-55562500D01*
X-10318750Y-55562500D02*
X59531250Y-55562500D01*
X-11906250Y-46037500D02*
G75*
G02X-11112500Y-46831250I0J-793750D01*
G01*
X-33337500Y-46831250D02*
G75*
G02X-32543750Y-46037500I793750J0D01*
G01*
X-33337500Y-54768750D02*
G75*
G02X-34131250Y-55562500I-793750J0D01*
G01*
X-10318750Y-55562500D02*
G75*
G02X-11112500Y-54768750I0J793750D01*
G01*
X-11112500Y-46831250D02*
X-11112500Y-54768750D01*
X-33337500Y-46831250D02*
X-33337500Y-54768750D01*
X-32543750Y-46037500D02*
X-11906250Y-46037500D01*
X105568750Y-55562500D02*
G75*
G02X106362500Y-56356250I0J-793750D01*
G01*
X73818750Y-55562500D02*
G75*
G02X73025000Y-54768750I0J793750D01*
G01*
X72231250Y-46037500D02*
G75*
G02X73025000Y-46831250I0J-793750D01*
G01*
X65087500Y-46831250D02*
G75*
G02X65881250Y-46037500I793750J0D01*
G01*
X65087500Y-54768750D02*
G75*
G02X64293750Y-55562500I-793750J0D01*
G01*
X106362500Y-56356250D02*
X106362500Y-57943750D01*
X73818750Y-55562500D02*
X105568750Y-55562500D01*
X73025000Y-46831250D02*
X73025000Y-54768750D01*
X65881250Y-46037500D02*
X72231250Y-46037500D01*
X65087500Y-54768750D02*
X65087500Y-46831250D01*
X59531250Y-55562500D02*
X64293750Y-55562500D01*
X120650000Y-96837500D02*
X120650000Y-96043750D01*
X-52387500Y-56356250D02*
G75*
G02X-51593750Y-55562500I793750J0D01*
G01*
X-51593750Y-139700000D02*
G75*
G02X-52387500Y-138906250I0J793750D01*
G01*
X111125000Y-138906250D02*
G75*
G02X110331250Y-139700000I-793750J0D01*
G01*
X111125000Y-114300000D02*
X111125000Y-138906250D01*
X119856250Y-114300000D02*
X111125000Y-114300000D01*
X120650000Y-96837500D02*
X120650000Y-113506250D01*
X111125000Y-95250000D02*
X119856250Y-95250000D01*
X111125000Y-76993750D02*
X111125000Y-95250000D01*
X106362500Y-76200000D02*
X110331250Y-76200000D01*
X106362500Y-57943750D02*
X106362500Y-76200000D01*
X-52387500Y-138906250D02*
X-52387500Y-56356250D01*
X110331250Y-139700000D02*
X-51593750Y-139700000D01*
X120650000Y-113506250D02*
G75*
G02X119856250Y-114300000I-793750J0D01*
G01*
X119856250Y-95250000D02*
G75*
G02X120650000Y-96043750I0J-793750D01*
G01*
X110331250Y-76200000D02*
G75*
G02X111125000Y-76993750I0J-793750D01*
G01*
M02*
