G04 #@! TF.GenerationSoftware,KiCad,Pcbnew,(5.1.4)-1*
G04 #@! TF.CreationDate,2020-11-20T09:34:24-08:00*
G04 #@! TF.ProjectId,_autosave-_autosave-_autosave-_autosave-uwu-55,5f617574-6f73-4617-9665-2d5f6175746f,rev?*
G04 #@! TF.SameCoordinates,Original*
G04 #@! TF.FileFunction,Drawing*
%FSLAX46Y46*%
G04 Gerber Fmt 4.6, Leading zero omitted, Abs format (unit mm)*
G04 Created by KiCad (PCBNEW (5.1.4)-1) date 2020-11-20 09:34:24*
%MOMM*%
%LPD*%
G04 APERTURE LIST*
%ADD10C,0.150000*%
G04 APERTURE END LIST*
D10*
X58737500Y-133350000D02*
X58737500Y-114300000D01*
X58737500Y-133350000D02*
X111125000Y-133350000D01*
X111125000Y-114300000D02*
X111125000Y-133350000D01*
X58737500Y-114300000D02*
X111125000Y-114300000D01*
X77931250Y-116825000D02*
X77931250Y-118825000D01*
X79931250Y-116825000D02*
X77931250Y-116825000D01*
X77931250Y-130825000D02*
X79931250Y-130825000D01*
X77931250Y-128825000D02*
X77931250Y-130825000D01*
X91931250Y-130825000D02*
X91931250Y-128825000D01*
X89931250Y-130825000D02*
X91931250Y-130825000D01*
X91931250Y-116825000D02*
X91931250Y-118825000D01*
X89931250Y-116825000D02*
X91931250Y-116825000D01*
X13731250Y-97775000D02*
X15731250Y-97775000D01*
X15731250Y-97775000D02*
X15731250Y-99775000D01*
X13731250Y-111775000D02*
X15731250Y-111775000D01*
X15731250Y-111775000D02*
X15731250Y-109775000D01*
X1731250Y-109775000D02*
X1731250Y-111775000D01*
X1731250Y-111775000D02*
X3731250Y-111775000D01*
X3731250Y-97775000D02*
X1731250Y-97775000D01*
X1731250Y-97775000D02*
X1731250Y-99775000D01*
X-7937500Y-95250000D02*
X25400000Y-95250000D01*
X25400000Y-95250000D02*
X25400000Y-114300000D01*
X-7937500Y-114300000D02*
X25400000Y-114300000D01*
X-7937500Y-114300000D02*
X-7937500Y-95250000D01*
X51831250Y-116825000D02*
X53831250Y-116825000D01*
X53831250Y-116825000D02*
X53831250Y-118825000D01*
X51831250Y-130825000D02*
X53831250Y-130825000D01*
X53831250Y-130825000D02*
X53831250Y-128825000D01*
X39831250Y-128825000D02*
X39831250Y-130825000D01*
X39831250Y-130825000D02*
X41831250Y-130825000D01*
X41831250Y-116825000D02*
X39831250Y-116825000D01*
X39831250Y-116825000D02*
X39831250Y-118825000D01*
X34925000Y-114300000D02*
X58737500Y-114300000D01*
X58737500Y-114300000D02*
X58737500Y-133350000D01*
X34925000Y-133350000D02*
X58737500Y-133350000D01*
X34925000Y-133350000D02*
X34925000Y-114300000D01*
X8968750Y-116825000D02*
X10968750Y-116825000D01*
X10968750Y-116825000D02*
X10968750Y-118825000D01*
X8968750Y-130825000D02*
X10968750Y-130825000D01*
X10968750Y-130825000D02*
X10968750Y-128825000D01*
X-3031250Y-128825000D02*
X-3031250Y-130825000D01*
X-3031250Y-130825000D02*
X-1031250Y-130825000D01*
X-1031250Y-116825000D02*
X-3031250Y-116825000D01*
X-3031250Y-116825000D02*
X-3031250Y-118825000D01*
X-7937500Y-114300000D02*
X15875000Y-114300000D01*
X15875000Y-114300000D02*
X15875000Y-133350000D01*
X-7937500Y-133350000D02*
X15875000Y-133350000D01*
X-7937500Y-133350000D02*
X-7937500Y-114300000D01*
X8968750Y-78725000D02*
X10968750Y-78725000D01*
X10968750Y-78725000D02*
X10968750Y-80725000D01*
X8968750Y-92725000D02*
X10968750Y-92725000D01*
X10968750Y-92725000D02*
X10968750Y-90725000D01*
X-3031250Y-90725000D02*
X-3031250Y-92725000D01*
X-3031250Y-92725000D02*
X-1031250Y-92725000D01*
X-1031250Y-78725000D02*
X-3031250Y-78725000D01*
X-3031250Y-78725000D02*
X-3031250Y-80725000D01*
X-7937500Y-76200000D02*
X15875000Y-76200000D01*
X15875000Y-76200000D02*
X15875000Y-95250000D01*
X-7937500Y-95250000D02*
X15875000Y-95250000D01*
X-7937500Y-95250000D02*
X-7937500Y-76200000D01*
X30400000Y-78725000D02*
X32400000Y-78725000D01*
X32400000Y-78725000D02*
X32400000Y-80725000D01*
X30400000Y-92725000D02*
X32400000Y-92725000D01*
X32400000Y-92725000D02*
X32400000Y-90725000D01*
X18400000Y-90725000D02*
X18400000Y-92725000D01*
X18400000Y-92725000D02*
X20400000Y-92725000D01*
X20400000Y-78725000D02*
X18400000Y-78725000D01*
X18400000Y-78725000D02*
X18400000Y-80725000D01*
X15875000Y-76200000D02*
X34925000Y-76200000D01*
X34925000Y-76200000D02*
X34925000Y-95250000D01*
X34925000Y-95250000D02*
X15875000Y-95250000D01*
X15875000Y-95250000D02*
X15875000Y-76200000D01*
X116125000Y-97775000D02*
X118125000Y-97775000D01*
X118125000Y-97775000D02*
X118125000Y-99775000D01*
X116125000Y-111775000D02*
X118125000Y-111775000D01*
X118125000Y-111775000D02*
X118125000Y-109775000D01*
X104125000Y-109775000D02*
X104125000Y-111775000D01*
X104125000Y-111775000D02*
X106125000Y-111775000D01*
X106125000Y-97775000D02*
X104125000Y-97775000D01*
X104125000Y-97775000D02*
X104125000Y-99775000D01*
X101600000Y-95250000D02*
X120650000Y-95250000D01*
X120650000Y-95250000D02*
X120650000Y-114300000D01*
X120650000Y-114300000D02*
X101600000Y-114300000D01*
X101600000Y-114300000D02*
X101600000Y-95250000D01*
X78025000Y-97775000D02*
X80025000Y-97775000D01*
X80025000Y-97775000D02*
X80025000Y-99775000D01*
X78025000Y-111775000D02*
X80025000Y-111775000D01*
X80025000Y-111775000D02*
X80025000Y-109775000D01*
X66025000Y-109775000D02*
X66025000Y-111775000D01*
X66025000Y-111775000D02*
X68025000Y-111775000D01*
X68025000Y-97775000D02*
X66025000Y-97775000D01*
X66025000Y-97775000D02*
X66025000Y-99775000D01*
X63500000Y-95250000D02*
X82550000Y-95250000D01*
X82550000Y-95250000D02*
X82550000Y-114300000D01*
X82550000Y-114300000D02*
X63500000Y-114300000D01*
X63500000Y-114300000D02*
X63500000Y-95250000D01*
X30400000Y-116825000D02*
X32400000Y-116825000D01*
X32400000Y-116825000D02*
X32400000Y-118825000D01*
X30400000Y-130825000D02*
X32400000Y-130825000D01*
X32400000Y-130825000D02*
X32400000Y-128825000D01*
X18400000Y-128825000D02*
X18400000Y-130825000D01*
X18400000Y-130825000D02*
X20400000Y-130825000D01*
X20400000Y-116825000D02*
X18400000Y-116825000D01*
X18400000Y-116825000D02*
X18400000Y-118825000D01*
X15875000Y-114300000D02*
X34925000Y-114300000D01*
X34925000Y-114300000D02*
X34925000Y-133350000D01*
X34925000Y-133350000D02*
X15875000Y-133350000D01*
X15875000Y-133350000D02*
X15875000Y-114300000D01*
X68500000Y-78725000D02*
X70500000Y-78725000D01*
X70500000Y-78725000D02*
X70500000Y-80725000D01*
X68500000Y-92725000D02*
X70500000Y-92725000D01*
X70500000Y-92725000D02*
X70500000Y-90725000D01*
X56500000Y-90725000D02*
X56500000Y-92725000D01*
X56500000Y-92725000D02*
X58500000Y-92725000D01*
X58500000Y-78725000D02*
X56500000Y-78725000D01*
X56500000Y-78725000D02*
X56500000Y-80725000D01*
X53975000Y-76200000D02*
X73025000Y-76200000D01*
X73025000Y-76200000D02*
X73025000Y-95250000D01*
X73025000Y-95250000D02*
X53975000Y-95250000D01*
X53975000Y-95250000D02*
X53975000Y-76200000D01*
X87550000Y-78725000D02*
X89550000Y-78725000D01*
X89550000Y-78725000D02*
X89550000Y-80725000D01*
X87550000Y-92725000D02*
X89550000Y-92725000D01*
X89550000Y-92725000D02*
X89550000Y-90725000D01*
X75550000Y-90725000D02*
X75550000Y-92725000D01*
X75550000Y-92725000D02*
X77550000Y-92725000D01*
X77550000Y-78725000D02*
X75550000Y-78725000D01*
X75550000Y-78725000D02*
X75550000Y-80725000D01*
X73025000Y-76200000D02*
X92075000Y-76200000D01*
X92075000Y-76200000D02*
X92075000Y-95250000D01*
X92075000Y-95250000D02*
X73025000Y-95250000D01*
X73025000Y-95250000D02*
X73025000Y-76200000D01*
X106600000Y-78725000D02*
X108600000Y-78725000D01*
X108600000Y-78725000D02*
X108600000Y-80725000D01*
X106600000Y-92725000D02*
X108600000Y-92725000D01*
X108600000Y-92725000D02*
X108600000Y-90725000D01*
X94600000Y-90725000D02*
X94600000Y-92725000D01*
X94600000Y-92725000D02*
X96600000Y-92725000D01*
X96600000Y-78725000D02*
X94600000Y-78725000D01*
X94600000Y-78725000D02*
X94600000Y-80725000D01*
X92075000Y-76200000D02*
X111125000Y-76200000D01*
X111125000Y-76200000D02*
X111125000Y-95250000D01*
X111125000Y-95250000D02*
X92075000Y-95250000D01*
X92075000Y-95250000D02*
X92075000Y-76200000D01*
X25637500Y-59675000D02*
X27637500Y-59675000D01*
X27637500Y-59675000D02*
X27637500Y-61675000D01*
X25637500Y-73675000D02*
X27637500Y-73675000D01*
X27637500Y-73675000D02*
X27637500Y-71675000D01*
X13637500Y-71675000D02*
X13637500Y-73675000D01*
X13637500Y-73675000D02*
X15637500Y-73675000D01*
X15637500Y-59675000D02*
X13637500Y-59675000D01*
X13637500Y-59675000D02*
X13637500Y-61675000D01*
X11112500Y-57150000D02*
X30162500Y-57150000D01*
X30162500Y-57150000D02*
X30162500Y-76200000D01*
X30162500Y-76200000D02*
X11112500Y-76200000D01*
X11112500Y-76200000D02*
X11112500Y-57150000D01*
X82787500Y-59675000D02*
X84787500Y-59675000D01*
X84787500Y-59675000D02*
X84787500Y-61675000D01*
X82787500Y-73675000D02*
X84787500Y-73675000D01*
X84787500Y-73675000D02*
X84787500Y-71675000D01*
X70787500Y-71675000D02*
X70787500Y-73675000D01*
X70787500Y-73675000D02*
X72787500Y-73675000D01*
X72787500Y-59675000D02*
X70787500Y-59675000D01*
X70787500Y-59675000D02*
X70787500Y-61675000D01*
X68262500Y-57150000D02*
X87312500Y-57150000D01*
X87312500Y-57150000D02*
X87312500Y-76200000D01*
X87312500Y-76200000D02*
X68262500Y-76200000D01*
X68262500Y-76200000D02*
X68262500Y-57150000D01*
X49450000Y-78725000D02*
X51450000Y-78725000D01*
X51450000Y-78725000D02*
X51450000Y-80725000D01*
X49450000Y-92725000D02*
X51450000Y-92725000D01*
X51450000Y-92725000D02*
X51450000Y-90725000D01*
X37450000Y-90725000D02*
X37450000Y-92725000D01*
X37450000Y-92725000D02*
X39450000Y-92725000D01*
X39450000Y-78725000D02*
X37450000Y-78725000D01*
X37450000Y-78725000D02*
X37450000Y-80725000D01*
X34925000Y-76200000D02*
X53975000Y-76200000D01*
X53975000Y-76200000D02*
X53975000Y-95250000D01*
X53975000Y-95250000D02*
X34925000Y-95250000D01*
X34925000Y-95250000D02*
X34925000Y-76200000D01*
X101837500Y-59675000D02*
X103837500Y-59675000D01*
X103837500Y-59675000D02*
X103837500Y-61675000D01*
X101837500Y-73675000D02*
X103837500Y-73675000D01*
X103837500Y-73675000D02*
X103837500Y-71675000D01*
X89837500Y-71675000D02*
X89837500Y-73675000D01*
X89837500Y-73675000D02*
X91837500Y-73675000D01*
X91837500Y-59675000D02*
X89837500Y-59675000D01*
X89837500Y-59675000D02*
X89837500Y-61675000D01*
X87312500Y-57150000D02*
X106362500Y-57150000D01*
X106362500Y-57150000D02*
X106362500Y-76200000D01*
X106362500Y-76200000D02*
X87312500Y-76200000D01*
X87312500Y-76200000D02*
X87312500Y-57150000D01*
X6587500Y-59675000D02*
X8587500Y-59675000D01*
X8587500Y-59675000D02*
X8587500Y-61675000D01*
X6587500Y-73675000D02*
X8587500Y-73675000D01*
X8587500Y-73675000D02*
X8587500Y-71675000D01*
X-5412500Y-71675000D02*
X-5412500Y-73675000D01*
X-5412500Y-73675000D02*
X-3412500Y-73675000D01*
X-3412500Y-59675000D02*
X-5412500Y-59675000D01*
X-5412500Y-59675000D02*
X-5412500Y-61675000D01*
X-7937500Y-57150000D02*
X11112500Y-57150000D01*
X11112500Y-57150000D02*
X11112500Y-76200000D01*
X11112500Y-76200000D02*
X-7937500Y-76200000D01*
X-7937500Y-76200000D02*
X-7937500Y-57150000D01*
X97075000Y-97775000D02*
X99075000Y-97775000D01*
X99075000Y-97775000D02*
X99075000Y-99775000D01*
X97075000Y-111775000D02*
X99075000Y-111775000D01*
X99075000Y-111775000D02*
X99075000Y-109775000D01*
X85075000Y-109775000D02*
X85075000Y-111775000D01*
X85075000Y-111775000D02*
X87075000Y-111775000D01*
X87075000Y-97775000D02*
X85075000Y-97775000D01*
X85075000Y-97775000D02*
X85075000Y-99775000D01*
X82550000Y-95250000D02*
X101600000Y-95250000D01*
X101600000Y-95250000D02*
X101600000Y-114300000D01*
X101600000Y-114300000D02*
X82550000Y-114300000D01*
X82550000Y-114300000D02*
X82550000Y-95250000D01*
X44687500Y-59675000D02*
X46687500Y-59675000D01*
X46687500Y-59675000D02*
X46687500Y-61675000D01*
X44687500Y-73675000D02*
X46687500Y-73675000D01*
X46687500Y-73675000D02*
X46687500Y-71675000D01*
X32687500Y-71675000D02*
X32687500Y-73675000D01*
X32687500Y-73675000D02*
X34687500Y-73675000D01*
X34687500Y-59675000D02*
X32687500Y-59675000D01*
X32687500Y-59675000D02*
X32687500Y-61675000D01*
X30162500Y-57150000D02*
X49212500Y-57150000D01*
X49212500Y-57150000D02*
X49212500Y-76200000D01*
X49212500Y-76200000D02*
X30162500Y-76200000D01*
X30162500Y-76200000D02*
X30162500Y-57150000D01*
X58975000Y-97775000D02*
X60975000Y-97775000D01*
X60975000Y-97775000D02*
X60975000Y-99775000D01*
X58975000Y-111775000D02*
X60975000Y-111775000D01*
X60975000Y-111775000D02*
X60975000Y-109775000D01*
X46975000Y-109775000D02*
X46975000Y-111775000D01*
X46975000Y-111775000D02*
X48975000Y-111775000D01*
X48975000Y-97775000D02*
X46975000Y-97775000D01*
X46975000Y-97775000D02*
X46975000Y-99775000D01*
X44450000Y-95250000D02*
X63500000Y-95250000D01*
X63500000Y-95250000D02*
X63500000Y-114300000D01*
X63500000Y-114300000D02*
X44450000Y-114300000D01*
X44450000Y-114300000D02*
X44450000Y-95250000D01*
X39925000Y-97775000D02*
X41925000Y-97775000D01*
X41925000Y-97775000D02*
X41925000Y-99775000D01*
X39925000Y-111775000D02*
X41925000Y-111775000D01*
X41925000Y-111775000D02*
X41925000Y-109775000D01*
X27925000Y-109775000D02*
X27925000Y-111775000D01*
X27925000Y-111775000D02*
X29925000Y-111775000D01*
X29925000Y-97775000D02*
X27925000Y-97775000D01*
X27925000Y-97775000D02*
X27925000Y-99775000D01*
X25400000Y-95250000D02*
X44450000Y-95250000D01*
X44450000Y-95250000D02*
X44450000Y-114300000D01*
X44450000Y-114300000D02*
X25400000Y-114300000D01*
X25400000Y-114300000D02*
X25400000Y-95250000D01*
X63737500Y-59675000D02*
X65737500Y-59675000D01*
X65737500Y-59675000D02*
X65737500Y-61675000D01*
X63737500Y-73675000D02*
X65737500Y-73675000D01*
X65737500Y-73675000D02*
X65737500Y-71675000D01*
X51737500Y-71675000D02*
X51737500Y-73675000D01*
X51737500Y-73675000D02*
X53737500Y-73675000D01*
X53737500Y-59675000D02*
X51737500Y-59675000D01*
X51737500Y-59675000D02*
X51737500Y-61675000D01*
X49212500Y-57150000D02*
X68262500Y-57150000D01*
X68262500Y-57150000D02*
X68262500Y-76200000D01*
X68262500Y-76200000D02*
X49212500Y-76200000D01*
X49212500Y-76200000D02*
X49212500Y-57150000D01*
X-36275000Y-116825000D02*
X-34275000Y-116825000D01*
X-34275000Y-116825000D02*
X-34275000Y-118825000D01*
X-36275000Y-130825000D02*
X-34275000Y-130825000D01*
X-34275000Y-130825000D02*
X-34275000Y-128825000D01*
X-48275000Y-128825000D02*
X-48275000Y-130825000D01*
X-48275000Y-130825000D02*
X-46275000Y-130825000D01*
X-46275000Y-116825000D02*
X-48275000Y-116825000D01*
X-48275000Y-116825000D02*
X-48275000Y-118825000D01*
X-50800000Y-114300000D02*
X-31750000Y-114300000D01*
X-31750000Y-114300000D02*
X-31750000Y-133350000D01*
X-31750000Y-133350000D02*
X-50800000Y-133350000D01*
X-50800000Y-133350000D02*
X-50800000Y-114300000D01*
X-36275000Y-78725000D02*
X-34275000Y-78725000D01*
X-34275000Y-78725000D02*
X-34275000Y-80725000D01*
X-36275000Y-92725000D02*
X-34275000Y-92725000D01*
X-34275000Y-92725000D02*
X-34275000Y-90725000D01*
X-48275000Y-90725000D02*
X-48275000Y-92725000D01*
X-48275000Y-92725000D02*
X-46275000Y-92725000D01*
X-46275000Y-78725000D02*
X-48275000Y-78725000D01*
X-48275000Y-78725000D02*
X-48275000Y-80725000D01*
X-50800000Y-76200000D02*
X-31750000Y-76200000D01*
X-31750000Y-76200000D02*
X-31750000Y-95250000D01*
X-31750000Y-95250000D02*
X-50800000Y-95250000D01*
X-50800000Y-95250000D02*
X-50800000Y-76200000D01*
X-36275000Y-97775000D02*
X-34275000Y-97775000D01*
X-34275000Y-97775000D02*
X-34275000Y-99775000D01*
X-36275000Y-111775000D02*
X-34275000Y-111775000D01*
X-34275000Y-111775000D02*
X-34275000Y-109775000D01*
X-48275000Y-109775000D02*
X-48275000Y-111775000D01*
X-48275000Y-111775000D02*
X-46275000Y-111775000D01*
X-46275000Y-97775000D02*
X-48275000Y-97775000D01*
X-48275000Y-97775000D02*
X-48275000Y-99775000D01*
X-50800000Y-95250000D02*
X-31750000Y-95250000D01*
X-31750000Y-95250000D02*
X-31750000Y-114300000D01*
X-31750000Y-114300000D02*
X-50800000Y-114300000D01*
X-50800000Y-114300000D02*
X-50800000Y-95250000D01*
X-17225000Y-97775000D02*
X-15225000Y-97775000D01*
X-15225000Y-97775000D02*
X-15225000Y-99775000D01*
X-17225000Y-111775000D02*
X-15225000Y-111775000D01*
X-15225000Y-111775000D02*
X-15225000Y-109775000D01*
X-29225000Y-109775000D02*
X-29225000Y-111775000D01*
X-29225000Y-111775000D02*
X-27225000Y-111775000D01*
X-27225000Y-97775000D02*
X-29225000Y-97775000D01*
X-29225000Y-97775000D02*
X-29225000Y-99775000D01*
X-31750000Y-95250000D02*
X-12700000Y-95250000D01*
X-12700000Y-95250000D02*
X-12700000Y-114300000D01*
X-12700000Y-114300000D02*
X-31750000Y-114300000D01*
X-31750000Y-114300000D02*
X-31750000Y-95250000D01*
X-17225000Y-59675000D02*
X-15225000Y-59675000D01*
X-15225000Y-59675000D02*
X-15225000Y-61675000D01*
X-17225000Y-73675000D02*
X-15225000Y-73675000D01*
X-15225000Y-73675000D02*
X-15225000Y-71675000D01*
X-29225000Y-71675000D02*
X-29225000Y-73675000D01*
X-29225000Y-73675000D02*
X-27225000Y-73675000D01*
X-27225000Y-59675000D02*
X-29225000Y-59675000D01*
X-29225000Y-59675000D02*
X-29225000Y-61675000D01*
X-31750000Y-57150000D02*
X-12700000Y-57150000D01*
X-12700000Y-57150000D02*
X-12700000Y-76200000D01*
X-12700000Y-76200000D02*
X-31750000Y-76200000D01*
X-31750000Y-76200000D02*
X-31750000Y-57150000D01*
X-36275000Y-59675000D02*
X-34275000Y-59675000D01*
X-34275000Y-59675000D02*
X-34275000Y-61675000D01*
X-36275000Y-73675000D02*
X-34275000Y-73675000D01*
X-34275000Y-73675000D02*
X-34275000Y-71675000D01*
X-48275000Y-71675000D02*
X-48275000Y-73675000D01*
X-48275000Y-73675000D02*
X-46275000Y-73675000D01*
X-46275000Y-59675000D02*
X-48275000Y-59675000D01*
X-48275000Y-59675000D02*
X-48275000Y-61675000D01*
X-50800000Y-57150000D02*
X-31750000Y-57150000D01*
X-31750000Y-57150000D02*
X-31750000Y-76200000D01*
X-31750000Y-76200000D02*
X-50800000Y-76200000D01*
X-50800000Y-76200000D02*
X-50800000Y-57150000D01*
X-17225000Y-116825000D02*
X-15225000Y-116825000D01*
X-15225000Y-116825000D02*
X-15225000Y-118825000D01*
X-17225000Y-130825000D02*
X-15225000Y-130825000D01*
X-15225000Y-130825000D02*
X-15225000Y-128825000D01*
X-29225000Y-128825000D02*
X-29225000Y-130825000D01*
X-29225000Y-130825000D02*
X-27225000Y-130825000D01*
X-27225000Y-116825000D02*
X-29225000Y-116825000D01*
X-29225000Y-116825000D02*
X-29225000Y-118825000D01*
X-31750000Y-114300000D02*
X-12700000Y-114300000D01*
X-12700000Y-114300000D02*
X-12700000Y-133350000D01*
X-12700000Y-133350000D02*
X-31750000Y-133350000D01*
X-31750000Y-133350000D02*
X-31750000Y-114300000D01*
X-17225000Y-78725000D02*
X-15225000Y-78725000D01*
X-15225000Y-78725000D02*
X-15225000Y-80725000D01*
X-17225000Y-92725000D02*
X-15225000Y-92725000D01*
X-15225000Y-92725000D02*
X-15225000Y-90725000D01*
X-29225000Y-90725000D02*
X-29225000Y-92725000D01*
X-29225000Y-92725000D02*
X-27225000Y-92725000D01*
X-27225000Y-78725000D02*
X-29225000Y-78725000D01*
X-29225000Y-78725000D02*
X-29225000Y-80725000D01*
X-31750000Y-76200000D02*
X-12700000Y-76200000D01*
X-12700000Y-76200000D02*
X-12700000Y-95250000D01*
X-12700000Y-95250000D02*
X-31750000Y-95250000D01*
X-31750000Y-95250000D02*
X-31750000Y-76200000D01*
X80955059Y-127452380D02*
X80955059Y-126452380D01*
X81288392Y-127166666D01*
X81621726Y-126452380D01*
X81621726Y-127452380D01*
X82002678Y-126452380D02*
X82669345Y-127452380D01*
X82669345Y-126452380D02*
X82002678Y-127452380D01*
X82812202Y-127547619D02*
X83574107Y-127547619D01*
X83812202Y-126928571D02*
X84145535Y-126928571D01*
X84288392Y-127452380D02*
X83812202Y-127452380D01*
X83812202Y-126452380D01*
X84288392Y-126452380D01*
X84716964Y-127452380D02*
X84716964Y-126452380D01*
X85288392Y-127452380D01*
X85288392Y-126452380D01*
X85621726Y-126452380D02*
X86193154Y-126452380D01*
X85907440Y-127452380D02*
X85907440Y-126452380D01*
X86526488Y-126928571D02*
X86859821Y-126928571D01*
X87002678Y-127452380D02*
X86526488Y-127452380D01*
X86526488Y-126452380D01*
X87002678Y-126452380D01*
X88002678Y-127452380D02*
X87669345Y-126976190D01*
X87431250Y-127452380D02*
X87431250Y-126452380D01*
X87812202Y-126452380D01*
X87907440Y-126500000D01*
X87955059Y-126547619D01*
X88002678Y-126642857D01*
X88002678Y-126785714D01*
X87955059Y-126880952D01*
X87907440Y-126928571D01*
X87812202Y-126976190D01*
X87431250Y-126976190D01*
X88955059Y-127452380D02*
X88383630Y-127452380D01*
X88669345Y-127452380D02*
X88669345Y-126452380D01*
X88574107Y-126595238D01*
X88478869Y-126690476D01*
X88383630Y-126738095D01*
X81169345Y-116339880D02*
X81169345Y-115339880D01*
X81502678Y-116054166D01*
X81836011Y-115339880D01*
X81836011Y-116339880D01*
X82216964Y-115339880D02*
X82883630Y-116339880D01*
X82883630Y-115339880D02*
X82216964Y-116339880D01*
X83264583Y-115958928D02*
X84026488Y-115958928D01*
X84502678Y-116339880D02*
X84502678Y-115339880D01*
X85074107Y-116339880D01*
X85074107Y-115339880D01*
X85693154Y-116339880D02*
X85597916Y-116292261D01*
X85550297Y-116244642D01*
X85502678Y-116149404D01*
X85502678Y-115863690D01*
X85550297Y-115768452D01*
X85597916Y-115720833D01*
X85693154Y-115673214D01*
X85836011Y-115673214D01*
X85931250Y-115720833D01*
X85978869Y-115768452D01*
X86026488Y-115863690D01*
X86026488Y-116149404D01*
X85978869Y-116244642D01*
X85931250Y-116292261D01*
X85836011Y-116339880D01*
X85693154Y-116339880D01*
X86931250Y-116339880D02*
X86455059Y-116339880D01*
X86455059Y-115339880D01*
X87264583Y-115816071D02*
X87597916Y-115816071D01*
X87740773Y-116339880D02*
X87264583Y-116339880D01*
X87264583Y-115339880D01*
X87740773Y-115339880D01*
X88169345Y-116339880D02*
X88169345Y-115339880D01*
X88407440Y-115339880D01*
X88550297Y-115387500D01*
X88645535Y-115482738D01*
X88693154Y-115577976D01*
X88740773Y-115768452D01*
X88740773Y-115911309D01*
X88693154Y-116101785D01*
X88645535Y-116197023D01*
X88550297Y-116292261D01*
X88407440Y-116339880D01*
X88169345Y-116339880D01*
X5016964Y-108402380D02*
X5016964Y-107402380D01*
X5350297Y-108116666D01*
X5683630Y-107402380D01*
X5683630Y-108402380D01*
X6064583Y-107402380D02*
X6731250Y-108402380D01*
X6731250Y-107402380D02*
X6064583Y-108402380D01*
X6874107Y-108497619D02*
X7636011Y-108497619D01*
X7826488Y-108354761D02*
X7969345Y-108402380D01*
X8207440Y-108402380D01*
X8302678Y-108354761D01*
X8350297Y-108307142D01*
X8397916Y-108211904D01*
X8397916Y-108116666D01*
X8350297Y-108021428D01*
X8302678Y-107973809D01*
X8207440Y-107926190D01*
X8016964Y-107878571D01*
X7921726Y-107830952D01*
X7874107Y-107783333D01*
X7826488Y-107688095D01*
X7826488Y-107592857D01*
X7874107Y-107497619D01*
X7921726Y-107450000D01*
X8016964Y-107402380D01*
X8255059Y-107402380D01*
X8397916Y-107450000D01*
X8826488Y-108402380D02*
X8826488Y-107402380D01*
X8826488Y-107878571D02*
X9397916Y-107878571D01*
X9397916Y-108402380D02*
X9397916Y-107402380D01*
X9874107Y-108402380D02*
X9874107Y-107402380D01*
X10683630Y-107878571D02*
X10350297Y-107878571D01*
X10350297Y-108402380D02*
X10350297Y-107402380D01*
X10826488Y-107402380D01*
X11064583Y-107402380D02*
X11636011Y-107402380D01*
X11350297Y-108402380D02*
X11350297Y-107402380D01*
X12493154Y-108402380D02*
X11921726Y-108402380D01*
X12207440Y-108402380D02*
X12207440Y-107402380D01*
X12112202Y-107545238D01*
X12016964Y-107640476D01*
X11921726Y-107688095D01*
X4969345Y-97289880D02*
X4969345Y-96289880D01*
X5302678Y-97004166D01*
X5636011Y-96289880D01*
X5636011Y-97289880D01*
X6016964Y-96289880D02*
X6683630Y-97289880D01*
X6683630Y-96289880D02*
X6016964Y-97289880D01*
X7064583Y-96908928D02*
X7826488Y-96908928D01*
X8302678Y-97289880D02*
X8302678Y-96289880D01*
X8874107Y-97289880D01*
X8874107Y-96289880D01*
X9493154Y-97289880D02*
X9397916Y-97242261D01*
X9350297Y-97194642D01*
X9302678Y-97099404D01*
X9302678Y-96813690D01*
X9350297Y-96718452D01*
X9397916Y-96670833D01*
X9493154Y-96623214D01*
X9636011Y-96623214D01*
X9731250Y-96670833D01*
X9778869Y-96718452D01*
X9826488Y-96813690D01*
X9826488Y-97099404D01*
X9778869Y-97194642D01*
X9731250Y-97242261D01*
X9636011Y-97289880D01*
X9493154Y-97289880D01*
X10731250Y-97289880D02*
X10255059Y-97289880D01*
X10255059Y-96289880D01*
X11064583Y-96766071D02*
X11397916Y-96766071D01*
X11540773Y-97289880D02*
X11064583Y-97289880D01*
X11064583Y-96289880D01*
X11540773Y-96289880D01*
X11969345Y-97289880D02*
X11969345Y-96289880D01*
X12207440Y-96289880D01*
X12350297Y-96337500D01*
X12445535Y-96432738D01*
X12493154Y-96527976D01*
X12540773Y-96718452D01*
X12540773Y-96861309D01*
X12493154Y-97051785D01*
X12445535Y-97147023D01*
X12350297Y-97242261D01*
X12207440Y-97289880D01*
X11969345Y-97289880D01*
X43950297Y-127452380D02*
X43950297Y-126452380D01*
X44283630Y-127166666D01*
X44616964Y-126452380D01*
X44616964Y-127452380D01*
X44997916Y-126452380D02*
X45664583Y-127452380D01*
X45664583Y-126452380D02*
X44997916Y-127452380D01*
X45807440Y-127547619D02*
X46569345Y-127547619D01*
X46759821Y-127166666D02*
X47236011Y-127166666D01*
X46664583Y-127452380D02*
X46997916Y-126452380D01*
X47331250Y-127452380D01*
X48140773Y-127452380D02*
X47664583Y-127452380D01*
X47664583Y-126452380D01*
X48331250Y-126452380D02*
X48902678Y-126452380D01*
X48616964Y-127452380D02*
X48616964Y-126452380D01*
X49759821Y-127452380D02*
X49188392Y-127452380D01*
X49474107Y-127452380D02*
X49474107Y-126452380D01*
X49378869Y-126595238D01*
X49283630Y-126690476D01*
X49188392Y-126738095D01*
X43069345Y-116339880D02*
X43069345Y-115339880D01*
X43402678Y-116054166D01*
X43736011Y-115339880D01*
X43736011Y-116339880D01*
X44116964Y-115339880D02*
X44783630Y-116339880D01*
X44783630Y-115339880D02*
X44116964Y-116339880D01*
X45164583Y-115958928D02*
X45926488Y-115958928D01*
X46402678Y-116339880D02*
X46402678Y-115339880D01*
X46974107Y-116339880D01*
X46974107Y-115339880D01*
X47593154Y-116339880D02*
X47497916Y-116292261D01*
X47450297Y-116244642D01*
X47402678Y-116149404D01*
X47402678Y-115863690D01*
X47450297Y-115768452D01*
X47497916Y-115720833D01*
X47593154Y-115673214D01*
X47736011Y-115673214D01*
X47831250Y-115720833D01*
X47878869Y-115768452D01*
X47926488Y-115863690D01*
X47926488Y-116149404D01*
X47878869Y-116244642D01*
X47831250Y-116292261D01*
X47736011Y-116339880D01*
X47593154Y-116339880D01*
X48831250Y-116339880D02*
X48355059Y-116339880D01*
X48355059Y-115339880D01*
X49164583Y-115816071D02*
X49497916Y-115816071D01*
X49640773Y-116339880D02*
X49164583Y-116339880D01*
X49164583Y-115339880D01*
X49640773Y-115339880D01*
X50069345Y-116339880D02*
X50069345Y-115339880D01*
X50307440Y-115339880D01*
X50450297Y-115387500D01*
X50545535Y-115482738D01*
X50593154Y-115577976D01*
X50640773Y-115768452D01*
X50640773Y-115911309D01*
X50593154Y-116101785D01*
X50545535Y-116197023D01*
X50450297Y-116292261D01*
X50307440Y-116339880D01*
X50069345Y-116339880D01*
X516369Y-127452380D02*
X516369Y-126452380D01*
X849702Y-127166666D01*
X1183035Y-126452380D01*
X1183035Y-127452380D01*
X1563988Y-126452380D02*
X2230654Y-127452380D01*
X2230654Y-126452380D02*
X1563988Y-127452380D01*
X2373511Y-127547619D02*
X3135416Y-127547619D01*
X3944940Y-127357142D02*
X3897321Y-127404761D01*
X3754464Y-127452380D01*
X3659226Y-127452380D01*
X3516369Y-127404761D01*
X3421130Y-127309523D01*
X3373511Y-127214285D01*
X3325892Y-127023809D01*
X3325892Y-126880952D01*
X3373511Y-126690476D01*
X3421130Y-126595238D01*
X3516369Y-126500000D01*
X3659226Y-126452380D01*
X3754464Y-126452380D01*
X3897321Y-126500000D01*
X3944940Y-126547619D01*
X4230654Y-126452380D02*
X4802083Y-126452380D01*
X4516369Y-127452380D02*
X4516369Y-126452380D01*
X5706845Y-127452380D02*
X5373511Y-126976190D01*
X5135416Y-127452380D02*
X5135416Y-126452380D01*
X5516369Y-126452380D01*
X5611607Y-126500000D01*
X5659226Y-126547619D01*
X5706845Y-126642857D01*
X5706845Y-126785714D01*
X5659226Y-126880952D01*
X5611607Y-126928571D01*
X5516369Y-126976190D01*
X5135416Y-126976190D01*
X6611607Y-127452380D02*
X6135416Y-127452380D01*
X6135416Y-126452380D01*
X7468750Y-127452380D02*
X6897321Y-127452380D01*
X7183035Y-127452380D02*
X7183035Y-126452380D01*
X7087797Y-126595238D01*
X6992559Y-126690476D01*
X6897321Y-126738095D01*
X206845Y-116339880D02*
X206845Y-115339880D01*
X540178Y-116054166D01*
X873511Y-115339880D01*
X873511Y-116339880D01*
X1254464Y-115339880D02*
X1921130Y-116339880D01*
X1921130Y-115339880D02*
X1254464Y-116339880D01*
X2302083Y-115958928D02*
X3063988Y-115958928D01*
X3540178Y-116339880D02*
X3540178Y-115339880D01*
X4111607Y-116339880D01*
X4111607Y-115339880D01*
X4730654Y-116339880D02*
X4635416Y-116292261D01*
X4587797Y-116244642D01*
X4540178Y-116149404D01*
X4540178Y-115863690D01*
X4587797Y-115768452D01*
X4635416Y-115720833D01*
X4730654Y-115673214D01*
X4873511Y-115673214D01*
X4968750Y-115720833D01*
X5016369Y-115768452D01*
X5063988Y-115863690D01*
X5063988Y-116149404D01*
X5016369Y-116244642D01*
X4968750Y-116292261D01*
X4873511Y-116339880D01*
X4730654Y-116339880D01*
X5968750Y-116339880D02*
X5492559Y-116339880D01*
X5492559Y-115339880D01*
X6302083Y-115816071D02*
X6635416Y-115816071D01*
X6778273Y-116339880D02*
X6302083Y-116339880D01*
X6302083Y-115339880D01*
X6778273Y-115339880D01*
X7206845Y-116339880D02*
X7206845Y-115339880D01*
X7444940Y-115339880D01*
X7587797Y-115387500D01*
X7683035Y-115482738D01*
X7730654Y-115577976D01*
X7778273Y-115768452D01*
X7778273Y-115911309D01*
X7730654Y-116101785D01*
X7683035Y-116197023D01*
X7587797Y-116292261D01*
X7444940Y-116339880D01*
X7206845Y-116339880D01*
X397321Y-89352380D02*
X397321Y-88352380D01*
X730654Y-89066666D01*
X1063988Y-88352380D01*
X1063988Y-89352380D01*
X1444940Y-88352380D02*
X2111607Y-89352380D01*
X2111607Y-88352380D02*
X1444940Y-89352380D01*
X2254464Y-89447619D02*
X3016369Y-89447619D01*
X3825892Y-89257142D02*
X3778273Y-89304761D01*
X3635416Y-89352380D01*
X3540178Y-89352380D01*
X3397321Y-89304761D01*
X3302083Y-89209523D01*
X3254464Y-89114285D01*
X3206845Y-88923809D01*
X3206845Y-88780952D01*
X3254464Y-88590476D01*
X3302083Y-88495238D01*
X3397321Y-88400000D01*
X3540178Y-88352380D01*
X3635416Y-88352380D01*
X3778273Y-88400000D01*
X3825892Y-88447619D01*
X4206845Y-89066666D02*
X4683035Y-89066666D01*
X4111607Y-89352380D02*
X4444940Y-88352380D01*
X4778273Y-89352380D01*
X5111607Y-89352380D02*
X5111607Y-88352380D01*
X5492559Y-88352380D01*
X5587797Y-88400000D01*
X5635416Y-88447619D01*
X5683035Y-88542857D01*
X5683035Y-88685714D01*
X5635416Y-88780952D01*
X5587797Y-88828571D01*
X5492559Y-88876190D01*
X5111607Y-88876190D01*
X6063988Y-89304761D02*
X6206845Y-89352380D01*
X6444940Y-89352380D01*
X6540178Y-89304761D01*
X6587797Y-89257142D01*
X6635416Y-89161904D01*
X6635416Y-89066666D01*
X6587797Y-88971428D01*
X6540178Y-88923809D01*
X6444940Y-88876190D01*
X6254464Y-88828571D01*
X6159226Y-88780952D01*
X6111607Y-88733333D01*
X6063988Y-88638095D01*
X6063988Y-88542857D01*
X6111607Y-88447619D01*
X6159226Y-88400000D01*
X6254464Y-88352380D01*
X6492559Y-88352380D01*
X6635416Y-88400000D01*
X7587797Y-89352380D02*
X7016369Y-89352380D01*
X7302083Y-89352380D02*
X7302083Y-88352380D01*
X7206845Y-88495238D01*
X7111607Y-88590476D01*
X7016369Y-88638095D01*
X206845Y-78239880D02*
X206845Y-77239880D01*
X540178Y-77954166D01*
X873511Y-77239880D01*
X873511Y-78239880D01*
X1254464Y-77239880D02*
X1921130Y-78239880D01*
X1921130Y-77239880D02*
X1254464Y-78239880D01*
X2302083Y-77858928D02*
X3063988Y-77858928D01*
X3540178Y-78239880D02*
X3540178Y-77239880D01*
X4111607Y-78239880D01*
X4111607Y-77239880D01*
X4730654Y-78239880D02*
X4635416Y-78192261D01*
X4587797Y-78144642D01*
X4540178Y-78049404D01*
X4540178Y-77763690D01*
X4587797Y-77668452D01*
X4635416Y-77620833D01*
X4730654Y-77573214D01*
X4873511Y-77573214D01*
X4968750Y-77620833D01*
X5016369Y-77668452D01*
X5063988Y-77763690D01*
X5063988Y-78049404D01*
X5016369Y-78144642D01*
X4968750Y-78192261D01*
X4873511Y-78239880D01*
X4730654Y-78239880D01*
X5968750Y-78239880D02*
X5492559Y-78239880D01*
X5492559Y-77239880D01*
X6302083Y-77716071D02*
X6635416Y-77716071D01*
X6778273Y-78239880D02*
X6302083Y-78239880D01*
X6302083Y-77239880D01*
X6778273Y-77239880D01*
X7206845Y-78239880D02*
X7206845Y-77239880D01*
X7444940Y-77239880D01*
X7587797Y-77287500D01*
X7683035Y-77382738D01*
X7730654Y-77477976D01*
X7778273Y-77668452D01*
X7778273Y-77811309D01*
X7730654Y-78001785D01*
X7683035Y-78097023D01*
X7587797Y-78192261D01*
X7444940Y-78239880D01*
X7206845Y-78239880D01*
X23304761Y-89352380D02*
X23304761Y-88352380D01*
X23638095Y-89066666D01*
X23971428Y-88352380D01*
X23971428Y-89352380D01*
X24352380Y-88352380D02*
X25019047Y-89352380D01*
X25019047Y-88352380D02*
X24352380Y-89352380D01*
X25161904Y-89447619D02*
X25923809Y-89447619D01*
X26114285Y-89066666D02*
X26590476Y-89066666D01*
X26019047Y-89352380D02*
X26352380Y-88352380D01*
X26685714Y-89352380D01*
X27542857Y-89352380D02*
X26971428Y-89352380D01*
X27257142Y-89352380D02*
X27257142Y-88352380D01*
X27161904Y-88495238D01*
X27066666Y-88590476D01*
X26971428Y-88638095D01*
X21638095Y-78239880D02*
X21638095Y-77239880D01*
X21971428Y-77954166D01*
X22304761Y-77239880D01*
X22304761Y-78239880D01*
X22685714Y-77239880D02*
X23352380Y-78239880D01*
X23352380Y-77239880D02*
X22685714Y-78239880D01*
X23733333Y-77858928D02*
X24495238Y-77858928D01*
X24971428Y-78239880D02*
X24971428Y-77239880D01*
X25542857Y-78239880D01*
X25542857Y-77239880D01*
X26161904Y-78239880D02*
X26066666Y-78192261D01*
X26019047Y-78144642D01*
X25971428Y-78049404D01*
X25971428Y-77763690D01*
X26019047Y-77668452D01*
X26066666Y-77620833D01*
X26161904Y-77573214D01*
X26304761Y-77573214D01*
X26400000Y-77620833D01*
X26447619Y-77668452D01*
X26495238Y-77763690D01*
X26495238Y-78049404D01*
X26447619Y-78144642D01*
X26400000Y-78192261D01*
X26304761Y-78239880D01*
X26161904Y-78239880D01*
X27400000Y-78239880D02*
X26923809Y-78239880D01*
X26923809Y-77239880D01*
X27733333Y-77716071D02*
X28066666Y-77716071D01*
X28209523Y-78239880D02*
X27733333Y-78239880D01*
X27733333Y-77239880D01*
X28209523Y-77239880D01*
X28638095Y-78239880D02*
X28638095Y-77239880D01*
X28876190Y-77239880D01*
X29019047Y-77287500D01*
X29114285Y-77382738D01*
X29161904Y-77477976D01*
X29209523Y-77668452D01*
X29209523Y-77811309D01*
X29161904Y-78001785D01*
X29114285Y-78097023D01*
X29019047Y-78192261D01*
X28876190Y-78239880D01*
X28638095Y-78239880D01*
X108958333Y-108402380D02*
X108958333Y-107402380D01*
X109291666Y-108116666D01*
X109625000Y-107402380D01*
X109625000Y-108402380D01*
X110005952Y-107402380D02*
X110672619Y-108402380D01*
X110672619Y-107402380D02*
X110005952Y-108402380D01*
X110815476Y-108497619D02*
X111577380Y-108497619D01*
X112148809Y-107878571D02*
X112291666Y-107926190D01*
X112339285Y-107973809D01*
X112386904Y-108069047D01*
X112386904Y-108211904D01*
X112339285Y-108307142D01*
X112291666Y-108354761D01*
X112196428Y-108402380D01*
X111815476Y-108402380D01*
X111815476Y-107402380D01*
X112148809Y-107402380D01*
X112244047Y-107450000D01*
X112291666Y-107497619D01*
X112339285Y-107592857D01*
X112339285Y-107688095D01*
X112291666Y-107783333D01*
X112244047Y-107830952D01*
X112148809Y-107878571D01*
X111815476Y-107878571D01*
X113339285Y-108402380D02*
X112767857Y-108402380D01*
X113053571Y-108402380D02*
X113053571Y-107402380D01*
X112958333Y-107545238D01*
X112863095Y-107640476D01*
X112767857Y-107688095D01*
X107363095Y-97289880D02*
X107363095Y-96289880D01*
X107696428Y-97004166D01*
X108029761Y-96289880D01*
X108029761Y-97289880D01*
X108410714Y-96289880D02*
X109077380Y-97289880D01*
X109077380Y-96289880D02*
X108410714Y-97289880D01*
X109458333Y-96908928D02*
X110220238Y-96908928D01*
X110696428Y-97289880D02*
X110696428Y-96289880D01*
X111267857Y-97289880D01*
X111267857Y-96289880D01*
X111886904Y-97289880D02*
X111791666Y-97242261D01*
X111744047Y-97194642D01*
X111696428Y-97099404D01*
X111696428Y-96813690D01*
X111744047Y-96718452D01*
X111791666Y-96670833D01*
X111886904Y-96623214D01*
X112029761Y-96623214D01*
X112125000Y-96670833D01*
X112172619Y-96718452D01*
X112220238Y-96813690D01*
X112220238Y-97099404D01*
X112172619Y-97194642D01*
X112125000Y-97242261D01*
X112029761Y-97289880D01*
X111886904Y-97289880D01*
X113125000Y-97289880D02*
X112648809Y-97289880D01*
X112648809Y-96289880D01*
X113458333Y-96766071D02*
X113791666Y-96766071D01*
X113934523Y-97289880D02*
X113458333Y-97289880D01*
X113458333Y-96289880D01*
X113934523Y-96289880D01*
X114363095Y-97289880D02*
X114363095Y-96289880D01*
X114601190Y-96289880D01*
X114744047Y-96337500D01*
X114839285Y-96432738D01*
X114886904Y-96527976D01*
X114934523Y-96718452D01*
X114934523Y-96861309D01*
X114886904Y-97051785D01*
X114839285Y-97147023D01*
X114744047Y-97242261D01*
X114601190Y-97289880D01*
X114363095Y-97289880D01*
X70858333Y-108402380D02*
X70858333Y-107402380D01*
X71191666Y-108116666D01*
X71525000Y-107402380D01*
X71525000Y-108402380D01*
X71905952Y-107402380D02*
X72572619Y-108402380D01*
X72572619Y-107402380D02*
X71905952Y-108402380D01*
X72715476Y-108497619D02*
X73477380Y-108497619D01*
X74286904Y-108307142D02*
X74239285Y-108354761D01*
X74096428Y-108402380D01*
X74001190Y-108402380D01*
X73858333Y-108354761D01*
X73763095Y-108259523D01*
X73715476Y-108164285D01*
X73667857Y-107973809D01*
X73667857Y-107830952D01*
X73715476Y-107640476D01*
X73763095Y-107545238D01*
X73858333Y-107450000D01*
X74001190Y-107402380D01*
X74096428Y-107402380D01*
X74239285Y-107450000D01*
X74286904Y-107497619D01*
X75239285Y-108402380D02*
X74667857Y-108402380D01*
X74953571Y-108402380D02*
X74953571Y-107402380D01*
X74858333Y-107545238D01*
X74763095Y-107640476D01*
X74667857Y-107688095D01*
X69263095Y-97289880D02*
X69263095Y-96289880D01*
X69596428Y-97004166D01*
X69929761Y-96289880D01*
X69929761Y-97289880D01*
X70310714Y-96289880D02*
X70977380Y-97289880D01*
X70977380Y-96289880D02*
X70310714Y-97289880D01*
X71358333Y-96908928D02*
X72120238Y-96908928D01*
X72596428Y-97289880D02*
X72596428Y-96289880D01*
X73167857Y-97289880D01*
X73167857Y-96289880D01*
X73786904Y-97289880D02*
X73691666Y-97242261D01*
X73644047Y-97194642D01*
X73596428Y-97099404D01*
X73596428Y-96813690D01*
X73644047Y-96718452D01*
X73691666Y-96670833D01*
X73786904Y-96623214D01*
X73929761Y-96623214D01*
X74025000Y-96670833D01*
X74072619Y-96718452D01*
X74120238Y-96813690D01*
X74120238Y-97099404D01*
X74072619Y-97194642D01*
X74025000Y-97242261D01*
X73929761Y-97289880D01*
X73786904Y-97289880D01*
X75025000Y-97289880D02*
X74548809Y-97289880D01*
X74548809Y-96289880D01*
X75358333Y-96766071D02*
X75691666Y-96766071D01*
X75834523Y-97289880D02*
X75358333Y-97289880D01*
X75358333Y-96289880D01*
X75834523Y-96289880D01*
X76263095Y-97289880D02*
X76263095Y-96289880D01*
X76501190Y-96289880D01*
X76644047Y-96337500D01*
X76739285Y-96432738D01*
X76786904Y-96527976D01*
X76834523Y-96718452D01*
X76834523Y-96861309D01*
X76786904Y-97051785D01*
X76739285Y-97147023D01*
X76644047Y-97242261D01*
X76501190Y-97289880D01*
X76263095Y-97289880D01*
X21757142Y-127452380D02*
X21757142Y-126452380D01*
X22090476Y-127166666D01*
X22423809Y-126452380D01*
X22423809Y-127452380D01*
X22804761Y-126452380D02*
X23471428Y-127452380D01*
X23471428Y-126452380D02*
X22804761Y-127452380D01*
X23614285Y-127547619D02*
X24376190Y-127547619D01*
X25185714Y-127357142D02*
X25138095Y-127404761D01*
X24995238Y-127452380D01*
X24900000Y-127452380D01*
X24757142Y-127404761D01*
X24661904Y-127309523D01*
X24614285Y-127214285D01*
X24566666Y-127023809D01*
X24566666Y-126880952D01*
X24614285Y-126690476D01*
X24661904Y-126595238D01*
X24757142Y-126500000D01*
X24900000Y-126452380D01*
X24995238Y-126452380D01*
X25138095Y-126500000D01*
X25185714Y-126547619D01*
X25804761Y-126452380D02*
X25995238Y-126452380D01*
X26090476Y-126500000D01*
X26185714Y-126595238D01*
X26233333Y-126785714D01*
X26233333Y-127119047D01*
X26185714Y-127309523D01*
X26090476Y-127404761D01*
X25995238Y-127452380D01*
X25804761Y-127452380D01*
X25709523Y-127404761D01*
X25614285Y-127309523D01*
X25566666Y-127119047D01*
X25566666Y-126785714D01*
X25614285Y-126595238D01*
X25709523Y-126500000D01*
X25804761Y-126452380D01*
X26661904Y-127452380D02*
X26661904Y-126452380D01*
X26900000Y-126452380D01*
X27042857Y-126500000D01*
X27138095Y-126595238D01*
X27185714Y-126690476D01*
X27233333Y-126880952D01*
X27233333Y-127023809D01*
X27185714Y-127214285D01*
X27138095Y-127309523D01*
X27042857Y-127404761D01*
X26900000Y-127452380D01*
X26661904Y-127452380D01*
X27661904Y-126928571D02*
X27995238Y-126928571D01*
X28138095Y-127452380D02*
X27661904Y-127452380D01*
X27661904Y-126452380D01*
X28138095Y-126452380D01*
X29090476Y-127452380D02*
X28519047Y-127452380D01*
X28804761Y-127452380D02*
X28804761Y-126452380D01*
X28709523Y-126595238D01*
X28614285Y-126690476D01*
X28519047Y-126738095D01*
X21638095Y-116339880D02*
X21638095Y-115339880D01*
X21971428Y-116054166D01*
X22304761Y-115339880D01*
X22304761Y-116339880D01*
X22685714Y-115339880D02*
X23352380Y-116339880D01*
X23352380Y-115339880D02*
X22685714Y-116339880D01*
X23733333Y-115958928D02*
X24495238Y-115958928D01*
X24971428Y-116339880D02*
X24971428Y-115339880D01*
X25542857Y-116339880D01*
X25542857Y-115339880D01*
X26161904Y-116339880D02*
X26066666Y-116292261D01*
X26019047Y-116244642D01*
X25971428Y-116149404D01*
X25971428Y-115863690D01*
X26019047Y-115768452D01*
X26066666Y-115720833D01*
X26161904Y-115673214D01*
X26304761Y-115673214D01*
X26400000Y-115720833D01*
X26447619Y-115768452D01*
X26495238Y-115863690D01*
X26495238Y-116149404D01*
X26447619Y-116244642D01*
X26400000Y-116292261D01*
X26304761Y-116339880D01*
X26161904Y-116339880D01*
X27400000Y-116339880D02*
X26923809Y-116339880D01*
X26923809Y-115339880D01*
X27733333Y-115816071D02*
X28066666Y-115816071D01*
X28209523Y-116339880D02*
X27733333Y-116339880D01*
X27733333Y-115339880D01*
X28209523Y-115339880D01*
X28638095Y-116339880D02*
X28638095Y-115339880D01*
X28876190Y-115339880D01*
X29019047Y-115387500D01*
X29114285Y-115482738D01*
X29161904Y-115577976D01*
X29209523Y-115768452D01*
X29209523Y-115911309D01*
X29161904Y-116101785D01*
X29114285Y-116197023D01*
X29019047Y-116292261D01*
X28876190Y-116339880D01*
X28638095Y-116339880D01*
X61333333Y-89352380D02*
X61333333Y-88352380D01*
X61666666Y-89066666D01*
X62000000Y-88352380D01*
X62000000Y-89352380D01*
X62380952Y-88352380D02*
X63047619Y-89352380D01*
X63047619Y-88352380D02*
X62380952Y-89352380D01*
X63190476Y-89447619D02*
X63952380Y-89447619D01*
X64190476Y-89352380D02*
X64190476Y-88352380D01*
X64428571Y-88352380D01*
X64571428Y-88400000D01*
X64666666Y-88495238D01*
X64714285Y-88590476D01*
X64761904Y-88780952D01*
X64761904Y-88923809D01*
X64714285Y-89114285D01*
X64666666Y-89209523D01*
X64571428Y-89304761D01*
X64428571Y-89352380D01*
X64190476Y-89352380D01*
X65714285Y-89352380D02*
X65142857Y-89352380D01*
X65428571Y-89352380D02*
X65428571Y-88352380D01*
X65333333Y-88495238D01*
X65238095Y-88590476D01*
X65142857Y-88638095D01*
X59738095Y-78239880D02*
X59738095Y-77239880D01*
X60071428Y-77954166D01*
X60404761Y-77239880D01*
X60404761Y-78239880D01*
X60785714Y-77239880D02*
X61452380Y-78239880D01*
X61452380Y-77239880D02*
X60785714Y-78239880D01*
X61833333Y-77858928D02*
X62595238Y-77858928D01*
X63071428Y-78239880D02*
X63071428Y-77239880D01*
X63642857Y-78239880D01*
X63642857Y-77239880D01*
X64261904Y-78239880D02*
X64166666Y-78192261D01*
X64119047Y-78144642D01*
X64071428Y-78049404D01*
X64071428Y-77763690D01*
X64119047Y-77668452D01*
X64166666Y-77620833D01*
X64261904Y-77573214D01*
X64404761Y-77573214D01*
X64500000Y-77620833D01*
X64547619Y-77668452D01*
X64595238Y-77763690D01*
X64595238Y-78049404D01*
X64547619Y-78144642D01*
X64500000Y-78192261D01*
X64404761Y-78239880D01*
X64261904Y-78239880D01*
X65500000Y-78239880D02*
X65023809Y-78239880D01*
X65023809Y-77239880D01*
X65833333Y-77716071D02*
X66166666Y-77716071D01*
X66309523Y-78239880D02*
X65833333Y-78239880D01*
X65833333Y-77239880D01*
X66309523Y-77239880D01*
X66738095Y-78239880D02*
X66738095Y-77239880D01*
X66976190Y-77239880D01*
X67119047Y-77287500D01*
X67214285Y-77382738D01*
X67261904Y-77477976D01*
X67309523Y-77668452D01*
X67309523Y-77811309D01*
X67261904Y-78001785D01*
X67214285Y-78097023D01*
X67119047Y-78192261D01*
X66976190Y-78239880D01*
X66738095Y-78239880D01*
X80454761Y-89352380D02*
X80454761Y-88352380D01*
X80788095Y-89066666D01*
X81121428Y-88352380D01*
X81121428Y-89352380D01*
X81502380Y-88352380D02*
X82169047Y-89352380D01*
X82169047Y-88352380D02*
X81502380Y-89352380D01*
X82311904Y-89447619D02*
X83073809Y-89447619D01*
X83645238Y-88828571D02*
X83311904Y-88828571D01*
X83311904Y-89352380D02*
X83311904Y-88352380D01*
X83788095Y-88352380D01*
X84692857Y-89352380D02*
X84121428Y-89352380D01*
X84407142Y-89352380D02*
X84407142Y-88352380D01*
X84311904Y-88495238D01*
X84216666Y-88590476D01*
X84121428Y-88638095D01*
X78788095Y-78239880D02*
X78788095Y-77239880D01*
X79121428Y-77954166D01*
X79454761Y-77239880D01*
X79454761Y-78239880D01*
X79835714Y-77239880D02*
X80502380Y-78239880D01*
X80502380Y-77239880D02*
X79835714Y-78239880D01*
X80883333Y-77858928D02*
X81645238Y-77858928D01*
X82121428Y-78239880D02*
X82121428Y-77239880D01*
X82692857Y-78239880D01*
X82692857Y-77239880D01*
X83311904Y-78239880D02*
X83216666Y-78192261D01*
X83169047Y-78144642D01*
X83121428Y-78049404D01*
X83121428Y-77763690D01*
X83169047Y-77668452D01*
X83216666Y-77620833D01*
X83311904Y-77573214D01*
X83454761Y-77573214D01*
X83550000Y-77620833D01*
X83597619Y-77668452D01*
X83645238Y-77763690D01*
X83645238Y-78049404D01*
X83597619Y-78144642D01*
X83550000Y-78192261D01*
X83454761Y-78239880D01*
X83311904Y-78239880D01*
X84550000Y-78239880D02*
X84073809Y-78239880D01*
X84073809Y-77239880D01*
X84883333Y-77716071D02*
X85216666Y-77716071D01*
X85359523Y-78239880D02*
X84883333Y-78239880D01*
X84883333Y-77239880D01*
X85359523Y-77239880D01*
X85788095Y-78239880D02*
X85788095Y-77239880D01*
X86026190Y-77239880D01*
X86169047Y-77287500D01*
X86264285Y-77382738D01*
X86311904Y-77477976D01*
X86359523Y-77668452D01*
X86359523Y-77811309D01*
X86311904Y-78001785D01*
X86264285Y-78097023D01*
X86169047Y-78192261D01*
X86026190Y-78239880D01*
X85788095Y-78239880D01*
X99433333Y-89352380D02*
X99433333Y-88352380D01*
X99766666Y-89066666D01*
X100100000Y-88352380D01*
X100100000Y-89352380D01*
X100480952Y-88352380D02*
X101147619Y-89352380D01*
X101147619Y-88352380D02*
X100480952Y-89352380D01*
X101290476Y-89447619D02*
X102052380Y-89447619D01*
X102814285Y-88400000D02*
X102719047Y-88352380D01*
X102576190Y-88352380D01*
X102433333Y-88400000D01*
X102338095Y-88495238D01*
X102290476Y-88590476D01*
X102242857Y-88780952D01*
X102242857Y-88923809D01*
X102290476Y-89114285D01*
X102338095Y-89209523D01*
X102433333Y-89304761D01*
X102576190Y-89352380D01*
X102671428Y-89352380D01*
X102814285Y-89304761D01*
X102861904Y-89257142D01*
X102861904Y-88923809D01*
X102671428Y-88923809D01*
X103814285Y-89352380D02*
X103242857Y-89352380D01*
X103528571Y-89352380D02*
X103528571Y-88352380D01*
X103433333Y-88495238D01*
X103338095Y-88590476D01*
X103242857Y-88638095D01*
X97838095Y-78239880D02*
X97838095Y-77239880D01*
X98171428Y-77954166D01*
X98504761Y-77239880D01*
X98504761Y-78239880D01*
X98885714Y-77239880D02*
X99552380Y-78239880D01*
X99552380Y-77239880D02*
X98885714Y-78239880D01*
X99933333Y-77858928D02*
X100695238Y-77858928D01*
X101171428Y-78239880D02*
X101171428Y-77239880D01*
X101742857Y-78239880D01*
X101742857Y-77239880D01*
X102361904Y-78239880D02*
X102266666Y-78192261D01*
X102219047Y-78144642D01*
X102171428Y-78049404D01*
X102171428Y-77763690D01*
X102219047Y-77668452D01*
X102266666Y-77620833D01*
X102361904Y-77573214D01*
X102504761Y-77573214D01*
X102600000Y-77620833D01*
X102647619Y-77668452D01*
X102695238Y-77763690D01*
X102695238Y-78049404D01*
X102647619Y-78144642D01*
X102600000Y-78192261D01*
X102504761Y-78239880D01*
X102361904Y-78239880D01*
X103600000Y-78239880D02*
X103123809Y-78239880D01*
X103123809Y-77239880D01*
X103933333Y-77716071D02*
X104266666Y-77716071D01*
X104409523Y-78239880D02*
X103933333Y-78239880D01*
X103933333Y-77239880D01*
X104409523Y-77239880D01*
X104838095Y-78239880D02*
X104838095Y-77239880D01*
X105076190Y-77239880D01*
X105219047Y-77287500D01*
X105314285Y-77382738D01*
X105361904Y-77477976D01*
X105409523Y-77668452D01*
X105409523Y-77811309D01*
X105361904Y-78001785D01*
X105314285Y-78097023D01*
X105219047Y-78192261D01*
X105076190Y-78239880D01*
X104838095Y-78239880D01*
X18447023Y-70302380D02*
X18447023Y-69302380D01*
X18780357Y-70016666D01*
X19113690Y-69302380D01*
X19113690Y-70302380D01*
X19494642Y-69302380D02*
X20161309Y-70302380D01*
X20161309Y-69302380D02*
X19494642Y-70302380D01*
X20304166Y-70397619D02*
X21066071Y-70397619D01*
X21970833Y-70397619D02*
X21875595Y-70350000D01*
X21780357Y-70254761D01*
X21637500Y-70111904D01*
X21542261Y-70064285D01*
X21447023Y-70064285D01*
X21494642Y-70302380D02*
X21399404Y-70254761D01*
X21304166Y-70159523D01*
X21256547Y-69969047D01*
X21256547Y-69635714D01*
X21304166Y-69445238D01*
X21399404Y-69350000D01*
X21494642Y-69302380D01*
X21685119Y-69302380D01*
X21780357Y-69350000D01*
X21875595Y-69445238D01*
X21923214Y-69635714D01*
X21923214Y-69969047D01*
X21875595Y-70159523D01*
X21780357Y-70254761D01*
X21685119Y-70302380D01*
X21494642Y-70302380D01*
X22875595Y-70302380D02*
X22304166Y-70302380D01*
X22589880Y-70302380D02*
X22589880Y-69302380D01*
X22494642Y-69445238D01*
X22399404Y-69540476D01*
X22304166Y-69588095D01*
X16875595Y-59189880D02*
X16875595Y-58189880D01*
X17208928Y-58904166D01*
X17542261Y-58189880D01*
X17542261Y-59189880D01*
X17923214Y-58189880D02*
X18589880Y-59189880D01*
X18589880Y-58189880D02*
X17923214Y-59189880D01*
X18970833Y-58808928D02*
X19732738Y-58808928D01*
X20208928Y-59189880D02*
X20208928Y-58189880D01*
X20780357Y-59189880D01*
X20780357Y-58189880D01*
X21399404Y-59189880D02*
X21304166Y-59142261D01*
X21256547Y-59094642D01*
X21208928Y-58999404D01*
X21208928Y-58713690D01*
X21256547Y-58618452D01*
X21304166Y-58570833D01*
X21399404Y-58523214D01*
X21542261Y-58523214D01*
X21637500Y-58570833D01*
X21685119Y-58618452D01*
X21732738Y-58713690D01*
X21732738Y-58999404D01*
X21685119Y-59094642D01*
X21637500Y-59142261D01*
X21542261Y-59189880D01*
X21399404Y-59189880D01*
X22637500Y-59189880D02*
X22161309Y-59189880D01*
X22161309Y-58189880D01*
X22970833Y-58666071D02*
X23304166Y-58666071D01*
X23447023Y-59189880D02*
X22970833Y-59189880D01*
X22970833Y-58189880D01*
X23447023Y-58189880D01*
X23875595Y-59189880D02*
X23875595Y-58189880D01*
X24113690Y-58189880D01*
X24256547Y-58237500D01*
X24351785Y-58332738D01*
X24399404Y-58427976D01*
X24447023Y-58618452D01*
X24447023Y-58761309D01*
X24399404Y-58951785D01*
X24351785Y-59047023D01*
X24256547Y-59142261D01*
X24113690Y-59189880D01*
X23875595Y-59189880D01*
X75620833Y-70302380D02*
X75620833Y-69302380D01*
X75954166Y-70016666D01*
X76287500Y-69302380D01*
X76287500Y-70302380D01*
X76668452Y-69302380D02*
X77335119Y-70302380D01*
X77335119Y-69302380D02*
X76668452Y-70302380D01*
X77477976Y-70397619D02*
X78239880Y-70397619D01*
X79049404Y-70302380D02*
X78716071Y-69826190D01*
X78477976Y-70302380D02*
X78477976Y-69302380D01*
X78858928Y-69302380D01*
X78954166Y-69350000D01*
X79001785Y-69397619D01*
X79049404Y-69492857D01*
X79049404Y-69635714D01*
X79001785Y-69730952D01*
X78954166Y-69778571D01*
X78858928Y-69826190D01*
X78477976Y-69826190D01*
X80001785Y-70302380D02*
X79430357Y-70302380D01*
X79716071Y-70302380D02*
X79716071Y-69302380D01*
X79620833Y-69445238D01*
X79525595Y-69540476D01*
X79430357Y-69588095D01*
X74025595Y-59189880D02*
X74025595Y-58189880D01*
X74358928Y-58904166D01*
X74692261Y-58189880D01*
X74692261Y-59189880D01*
X75073214Y-58189880D02*
X75739880Y-59189880D01*
X75739880Y-58189880D02*
X75073214Y-59189880D01*
X76120833Y-58808928D02*
X76882738Y-58808928D01*
X77358928Y-59189880D02*
X77358928Y-58189880D01*
X77930357Y-59189880D01*
X77930357Y-58189880D01*
X78549404Y-59189880D02*
X78454166Y-59142261D01*
X78406547Y-59094642D01*
X78358928Y-58999404D01*
X78358928Y-58713690D01*
X78406547Y-58618452D01*
X78454166Y-58570833D01*
X78549404Y-58523214D01*
X78692261Y-58523214D01*
X78787500Y-58570833D01*
X78835119Y-58618452D01*
X78882738Y-58713690D01*
X78882738Y-58999404D01*
X78835119Y-59094642D01*
X78787500Y-59142261D01*
X78692261Y-59189880D01*
X78549404Y-59189880D01*
X79787500Y-59189880D02*
X79311309Y-59189880D01*
X79311309Y-58189880D01*
X80120833Y-58666071D02*
X80454166Y-58666071D01*
X80597023Y-59189880D02*
X80120833Y-59189880D01*
X80120833Y-58189880D01*
X80597023Y-58189880D01*
X81025595Y-59189880D02*
X81025595Y-58189880D01*
X81263690Y-58189880D01*
X81406547Y-58237500D01*
X81501785Y-58332738D01*
X81549404Y-58427976D01*
X81597023Y-58618452D01*
X81597023Y-58761309D01*
X81549404Y-58951785D01*
X81501785Y-59047023D01*
X81406547Y-59142261D01*
X81263690Y-59189880D01*
X81025595Y-59189880D01*
X42307142Y-89352380D02*
X42307142Y-88352380D01*
X42640476Y-89066666D01*
X42973809Y-88352380D01*
X42973809Y-89352380D01*
X43354761Y-88352380D02*
X44021428Y-89352380D01*
X44021428Y-88352380D02*
X43354761Y-89352380D01*
X44164285Y-89447619D02*
X44926190Y-89447619D01*
X45116666Y-89304761D02*
X45259523Y-89352380D01*
X45497619Y-89352380D01*
X45592857Y-89304761D01*
X45640476Y-89257142D01*
X45688095Y-89161904D01*
X45688095Y-89066666D01*
X45640476Y-88971428D01*
X45592857Y-88923809D01*
X45497619Y-88876190D01*
X45307142Y-88828571D01*
X45211904Y-88780952D01*
X45164285Y-88733333D01*
X45116666Y-88638095D01*
X45116666Y-88542857D01*
X45164285Y-88447619D01*
X45211904Y-88400000D01*
X45307142Y-88352380D01*
X45545238Y-88352380D01*
X45688095Y-88400000D01*
X46640476Y-89352380D02*
X46069047Y-89352380D01*
X46354761Y-89352380D02*
X46354761Y-88352380D01*
X46259523Y-88495238D01*
X46164285Y-88590476D01*
X46069047Y-88638095D01*
X40688095Y-78239880D02*
X40688095Y-77239880D01*
X41021428Y-77954166D01*
X41354761Y-77239880D01*
X41354761Y-78239880D01*
X41735714Y-77239880D02*
X42402380Y-78239880D01*
X42402380Y-77239880D02*
X41735714Y-78239880D01*
X42783333Y-77858928D02*
X43545238Y-77858928D01*
X44021428Y-78239880D02*
X44021428Y-77239880D01*
X44592857Y-78239880D01*
X44592857Y-77239880D01*
X45211904Y-78239880D02*
X45116666Y-78192261D01*
X45069047Y-78144642D01*
X45021428Y-78049404D01*
X45021428Y-77763690D01*
X45069047Y-77668452D01*
X45116666Y-77620833D01*
X45211904Y-77573214D01*
X45354761Y-77573214D01*
X45450000Y-77620833D01*
X45497619Y-77668452D01*
X45545238Y-77763690D01*
X45545238Y-78049404D01*
X45497619Y-78144642D01*
X45450000Y-78192261D01*
X45354761Y-78239880D01*
X45211904Y-78239880D01*
X46450000Y-78239880D02*
X45973809Y-78239880D01*
X45973809Y-77239880D01*
X46783333Y-77716071D02*
X47116666Y-77716071D01*
X47259523Y-78239880D02*
X46783333Y-78239880D01*
X46783333Y-77239880D01*
X47259523Y-77239880D01*
X47688095Y-78239880D02*
X47688095Y-77239880D01*
X47926190Y-77239880D01*
X48069047Y-77287500D01*
X48164285Y-77382738D01*
X48211904Y-77477976D01*
X48259523Y-77668452D01*
X48259523Y-77811309D01*
X48211904Y-78001785D01*
X48164285Y-78097023D01*
X48069047Y-78192261D01*
X47926190Y-78239880D01*
X47688095Y-78239880D01*
X94789880Y-70302380D02*
X94789880Y-69302380D01*
X95123214Y-70016666D01*
X95456547Y-69302380D01*
X95456547Y-70302380D01*
X95837500Y-69302380D02*
X96504166Y-70302380D01*
X96504166Y-69302380D02*
X95837500Y-70302380D01*
X96647023Y-70397619D02*
X97408928Y-70397619D01*
X97504166Y-69302380D02*
X98075595Y-69302380D01*
X97789880Y-70302380D02*
X97789880Y-69302380D01*
X98932738Y-70302380D02*
X98361309Y-70302380D01*
X98647023Y-70302380D02*
X98647023Y-69302380D01*
X98551785Y-69445238D01*
X98456547Y-69540476D01*
X98361309Y-69588095D01*
X93075595Y-59189880D02*
X93075595Y-58189880D01*
X93408928Y-58904166D01*
X93742261Y-58189880D01*
X93742261Y-59189880D01*
X94123214Y-58189880D02*
X94789880Y-59189880D01*
X94789880Y-58189880D02*
X94123214Y-59189880D01*
X95170833Y-58808928D02*
X95932738Y-58808928D01*
X96408928Y-59189880D02*
X96408928Y-58189880D01*
X96980357Y-59189880D01*
X96980357Y-58189880D01*
X97599404Y-59189880D02*
X97504166Y-59142261D01*
X97456547Y-59094642D01*
X97408928Y-58999404D01*
X97408928Y-58713690D01*
X97456547Y-58618452D01*
X97504166Y-58570833D01*
X97599404Y-58523214D01*
X97742261Y-58523214D01*
X97837500Y-58570833D01*
X97885119Y-58618452D01*
X97932738Y-58713690D01*
X97932738Y-58999404D01*
X97885119Y-59094642D01*
X97837500Y-59142261D01*
X97742261Y-59189880D01*
X97599404Y-59189880D01*
X98837500Y-59189880D02*
X98361309Y-59189880D01*
X98361309Y-58189880D01*
X99170833Y-58666071D02*
X99504166Y-58666071D01*
X99647023Y-59189880D02*
X99170833Y-59189880D01*
X99170833Y-58189880D01*
X99647023Y-58189880D01*
X100075595Y-59189880D02*
X100075595Y-58189880D01*
X100313690Y-58189880D01*
X100456547Y-58237500D01*
X100551785Y-58332738D01*
X100599404Y-58427976D01*
X100647023Y-58618452D01*
X100647023Y-58761309D01*
X100599404Y-58951785D01*
X100551785Y-59047023D01*
X100456547Y-59142261D01*
X100313690Y-59189880D01*
X100075595Y-59189880D01*
X-1388690Y-70302380D02*
X-1388690Y-69302380D01*
X-1055357Y-70016666D01*
X-722023Y-69302380D01*
X-722023Y-70302380D01*
X-341071Y-69302380D02*
X325595Y-70302380D01*
X325595Y-69302380D02*
X-341071Y-70302380D01*
X468452Y-70397619D02*
X1230357Y-70397619D01*
X1325595Y-69302380D02*
X1897023Y-69302380D01*
X1611309Y-70302380D02*
X1611309Y-69302380D01*
X2182738Y-70016666D02*
X2658928Y-70016666D01*
X2087500Y-70302380D02*
X2420833Y-69302380D01*
X2754166Y-70302380D01*
X3420833Y-69778571D02*
X3563690Y-69826190D01*
X3611309Y-69873809D01*
X3658928Y-69969047D01*
X3658928Y-70111904D01*
X3611309Y-70207142D01*
X3563690Y-70254761D01*
X3468452Y-70302380D01*
X3087500Y-70302380D01*
X3087500Y-69302380D01*
X3420833Y-69302380D01*
X3516071Y-69350000D01*
X3563690Y-69397619D01*
X3611309Y-69492857D01*
X3611309Y-69588095D01*
X3563690Y-69683333D01*
X3516071Y-69730952D01*
X3420833Y-69778571D01*
X3087500Y-69778571D01*
X4611309Y-70302380D02*
X4039880Y-70302380D01*
X4325595Y-70302380D02*
X4325595Y-69302380D01*
X4230357Y-69445238D01*
X4135119Y-69540476D01*
X4039880Y-69588095D01*
X-2174404Y-59189880D02*
X-2174404Y-58189880D01*
X-1841071Y-58904166D01*
X-1507738Y-58189880D01*
X-1507738Y-59189880D01*
X-1126785Y-58189880D02*
X-460119Y-59189880D01*
X-460119Y-58189880D02*
X-1126785Y-59189880D01*
X-79166Y-58808928D02*
X682738Y-58808928D01*
X1158928Y-59189880D02*
X1158928Y-58189880D01*
X1730357Y-59189880D01*
X1730357Y-58189880D01*
X2349404Y-59189880D02*
X2254166Y-59142261D01*
X2206547Y-59094642D01*
X2158928Y-58999404D01*
X2158928Y-58713690D01*
X2206547Y-58618452D01*
X2254166Y-58570833D01*
X2349404Y-58523214D01*
X2492261Y-58523214D01*
X2587500Y-58570833D01*
X2635119Y-58618452D01*
X2682738Y-58713690D01*
X2682738Y-58999404D01*
X2635119Y-59094642D01*
X2587500Y-59142261D01*
X2492261Y-59189880D01*
X2349404Y-59189880D01*
X3587500Y-59189880D02*
X3111309Y-59189880D01*
X3111309Y-58189880D01*
X3920833Y-58666071D02*
X4254166Y-58666071D01*
X4397023Y-59189880D02*
X3920833Y-59189880D01*
X3920833Y-58189880D01*
X4397023Y-58189880D01*
X4825595Y-59189880D02*
X4825595Y-58189880D01*
X5063690Y-58189880D01*
X5206547Y-58237500D01*
X5301785Y-58332738D01*
X5349404Y-58427976D01*
X5397023Y-58618452D01*
X5397023Y-58761309D01*
X5349404Y-58951785D01*
X5301785Y-59047023D01*
X5206547Y-59142261D01*
X5063690Y-59189880D01*
X4825595Y-59189880D01*
X89979761Y-108402380D02*
X89979761Y-107402380D01*
X90313095Y-108116666D01*
X90646428Y-107402380D01*
X90646428Y-108402380D01*
X91027380Y-107402380D02*
X91694047Y-108402380D01*
X91694047Y-107402380D02*
X91027380Y-108402380D01*
X91836904Y-108497619D02*
X92598809Y-108497619D01*
X92694047Y-107402380D02*
X93027380Y-108402380D01*
X93360714Y-107402380D01*
X94217857Y-108402380D02*
X93646428Y-108402380D01*
X93932142Y-108402380D02*
X93932142Y-107402380D01*
X93836904Y-107545238D01*
X93741666Y-107640476D01*
X93646428Y-107688095D01*
X88313095Y-97289880D02*
X88313095Y-96289880D01*
X88646428Y-97004166D01*
X88979761Y-96289880D01*
X88979761Y-97289880D01*
X89360714Y-96289880D02*
X90027380Y-97289880D01*
X90027380Y-96289880D02*
X89360714Y-97289880D01*
X90408333Y-96908928D02*
X91170238Y-96908928D01*
X91646428Y-97289880D02*
X91646428Y-96289880D01*
X92217857Y-97289880D01*
X92217857Y-96289880D01*
X92836904Y-97289880D02*
X92741666Y-97242261D01*
X92694047Y-97194642D01*
X92646428Y-97099404D01*
X92646428Y-96813690D01*
X92694047Y-96718452D01*
X92741666Y-96670833D01*
X92836904Y-96623214D01*
X92979761Y-96623214D01*
X93075000Y-96670833D01*
X93122619Y-96718452D01*
X93170238Y-96813690D01*
X93170238Y-97099404D01*
X93122619Y-97194642D01*
X93075000Y-97242261D01*
X92979761Y-97289880D01*
X92836904Y-97289880D01*
X94075000Y-97289880D02*
X93598809Y-97289880D01*
X93598809Y-96289880D01*
X94408333Y-96766071D02*
X94741666Y-96766071D01*
X94884523Y-97289880D02*
X94408333Y-97289880D01*
X94408333Y-96289880D01*
X94884523Y-96289880D01*
X95313095Y-97289880D02*
X95313095Y-96289880D01*
X95551190Y-96289880D01*
X95694047Y-96337500D01*
X95789285Y-96432738D01*
X95836904Y-96527976D01*
X95884523Y-96718452D01*
X95884523Y-96861309D01*
X95836904Y-97051785D01*
X95789285Y-97147023D01*
X95694047Y-97242261D01*
X95551190Y-97289880D01*
X95313095Y-97289880D01*
X37449404Y-70302380D02*
X37449404Y-69302380D01*
X37782738Y-70016666D01*
X38116071Y-69302380D01*
X38116071Y-70302380D01*
X38497023Y-69302380D02*
X39163690Y-70302380D01*
X39163690Y-69302380D02*
X38497023Y-70302380D01*
X39306547Y-70397619D02*
X40068452Y-70397619D01*
X40211309Y-69302380D02*
X40449404Y-70302380D01*
X40639880Y-69588095D01*
X40830357Y-70302380D01*
X41068452Y-69302380D01*
X41973214Y-70302380D02*
X41401785Y-70302380D01*
X41687500Y-70302380D02*
X41687500Y-69302380D01*
X41592261Y-69445238D01*
X41497023Y-69540476D01*
X41401785Y-69588095D01*
X35925595Y-59189880D02*
X35925595Y-58189880D01*
X36258928Y-58904166D01*
X36592261Y-58189880D01*
X36592261Y-59189880D01*
X36973214Y-58189880D02*
X37639880Y-59189880D01*
X37639880Y-58189880D02*
X36973214Y-59189880D01*
X38020833Y-58808928D02*
X38782738Y-58808928D01*
X39258928Y-59189880D02*
X39258928Y-58189880D01*
X39830357Y-59189880D01*
X39830357Y-58189880D01*
X40449404Y-59189880D02*
X40354166Y-59142261D01*
X40306547Y-59094642D01*
X40258928Y-58999404D01*
X40258928Y-58713690D01*
X40306547Y-58618452D01*
X40354166Y-58570833D01*
X40449404Y-58523214D01*
X40592261Y-58523214D01*
X40687500Y-58570833D01*
X40735119Y-58618452D01*
X40782738Y-58713690D01*
X40782738Y-58999404D01*
X40735119Y-59094642D01*
X40687500Y-59142261D01*
X40592261Y-59189880D01*
X40449404Y-59189880D01*
X41687500Y-59189880D02*
X41211309Y-59189880D01*
X41211309Y-58189880D01*
X42020833Y-58666071D02*
X42354166Y-58666071D01*
X42497023Y-59189880D02*
X42020833Y-59189880D01*
X42020833Y-58189880D01*
X42497023Y-58189880D01*
X42925595Y-59189880D02*
X42925595Y-58189880D01*
X43163690Y-58189880D01*
X43306547Y-58237500D01*
X43401785Y-58332738D01*
X43449404Y-58427976D01*
X43497023Y-58618452D01*
X43497023Y-58761309D01*
X43449404Y-58951785D01*
X43401785Y-59047023D01*
X43306547Y-59142261D01*
X43163690Y-59189880D01*
X42925595Y-59189880D01*
X51832142Y-108402380D02*
X51832142Y-107402380D01*
X52165476Y-108116666D01*
X52498809Y-107402380D01*
X52498809Y-108402380D01*
X52879761Y-107402380D02*
X53546428Y-108402380D01*
X53546428Y-107402380D02*
X52879761Y-108402380D01*
X53689285Y-108497619D02*
X54451190Y-108497619D01*
X54594047Y-107402380D02*
X55260714Y-108402380D01*
X55260714Y-107402380D02*
X54594047Y-108402380D01*
X56165476Y-108402380D02*
X55594047Y-108402380D01*
X55879761Y-108402380D02*
X55879761Y-107402380D01*
X55784523Y-107545238D01*
X55689285Y-107640476D01*
X55594047Y-107688095D01*
X50213095Y-97289880D02*
X50213095Y-96289880D01*
X50546428Y-97004166D01*
X50879761Y-96289880D01*
X50879761Y-97289880D01*
X51260714Y-96289880D02*
X51927380Y-97289880D01*
X51927380Y-96289880D02*
X51260714Y-97289880D01*
X52308333Y-96908928D02*
X53070238Y-96908928D01*
X53546428Y-97289880D02*
X53546428Y-96289880D01*
X54117857Y-97289880D01*
X54117857Y-96289880D01*
X54736904Y-97289880D02*
X54641666Y-97242261D01*
X54594047Y-97194642D01*
X54546428Y-97099404D01*
X54546428Y-96813690D01*
X54594047Y-96718452D01*
X54641666Y-96670833D01*
X54736904Y-96623214D01*
X54879761Y-96623214D01*
X54975000Y-96670833D01*
X55022619Y-96718452D01*
X55070238Y-96813690D01*
X55070238Y-97099404D01*
X55022619Y-97194642D01*
X54975000Y-97242261D01*
X54879761Y-97289880D01*
X54736904Y-97289880D01*
X55975000Y-97289880D02*
X55498809Y-97289880D01*
X55498809Y-96289880D01*
X56308333Y-96766071D02*
X56641666Y-96766071D01*
X56784523Y-97289880D02*
X56308333Y-97289880D01*
X56308333Y-96289880D01*
X56784523Y-96289880D01*
X57213095Y-97289880D02*
X57213095Y-96289880D01*
X57451190Y-96289880D01*
X57594047Y-96337500D01*
X57689285Y-96432738D01*
X57736904Y-96527976D01*
X57784523Y-96718452D01*
X57784523Y-96861309D01*
X57736904Y-97051785D01*
X57689285Y-97147023D01*
X57594047Y-97242261D01*
X57451190Y-97289880D01*
X57213095Y-97289880D01*
X32782142Y-108402380D02*
X32782142Y-107402380D01*
X33115476Y-108116666D01*
X33448809Y-107402380D01*
X33448809Y-108402380D01*
X33829761Y-107402380D02*
X34496428Y-108402380D01*
X34496428Y-107402380D02*
X33829761Y-108402380D01*
X34639285Y-108497619D02*
X35401190Y-108497619D01*
X35544047Y-107402380D02*
X36210714Y-107402380D01*
X35544047Y-108402380D01*
X36210714Y-108402380D01*
X37115476Y-108402380D02*
X36544047Y-108402380D01*
X36829761Y-108402380D02*
X36829761Y-107402380D01*
X36734523Y-107545238D01*
X36639285Y-107640476D01*
X36544047Y-107688095D01*
X31163095Y-97289880D02*
X31163095Y-96289880D01*
X31496428Y-97004166D01*
X31829761Y-96289880D01*
X31829761Y-97289880D01*
X32210714Y-96289880D02*
X32877380Y-97289880D01*
X32877380Y-96289880D02*
X32210714Y-97289880D01*
X33258333Y-96908928D02*
X34020238Y-96908928D01*
X34496428Y-97289880D02*
X34496428Y-96289880D01*
X35067857Y-97289880D01*
X35067857Y-96289880D01*
X35686904Y-97289880D02*
X35591666Y-97242261D01*
X35544047Y-97194642D01*
X35496428Y-97099404D01*
X35496428Y-96813690D01*
X35544047Y-96718452D01*
X35591666Y-96670833D01*
X35686904Y-96623214D01*
X35829761Y-96623214D01*
X35925000Y-96670833D01*
X35972619Y-96718452D01*
X36020238Y-96813690D01*
X36020238Y-97099404D01*
X35972619Y-97194642D01*
X35925000Y-97242261D01*
X35829761Y-97289880D01*
X35686904Y-97289880D01*
X36925000Y-97289880D02*
X36448809Y-97289880D01*
X36448809Y-96289880D01*
X37258333Y-96766071D02*
X37591666Y-96766071D01*
X37734523Y-97289880D02*
X37258333Y-97289880D01*
X37258333Y-96289880D01*
X37734523Y-96289880D01*
X38163095Y-97289880D02*
X38163095Y-96289880D01*
X38401190Y-96289880D01*
X38544047Y-96337500D01*
X38639285Y-96432738D01*
X38686904Y-96527976D01*
X38734523Y-96718452D01*
X38734523Y-96861309D01*
X38686904Y-97051785D01*
X38639285Y-97147023D01*
X38544047Y-97242261D01*
X38401190Y-97289880D01*
X38163095Y-97289880D01*
X56618452Y-70302380D02*
X56618452Y-69302380D01*
X56951785Y-70016666D01*
X57285119Y-69302380D01*
X57285119Y-70302380D01*
X57666071Y-69302380D02*
X58332738Y-70302380D01*
X58332738Y-69302380D02*
X57666071Y-70302380D01*
X58475595Y-70397619D02*
X59237500Y-70397619D01*
X59475595Y-69778571D02*
X59808928Y-69778571D01*
X59951785Y-70302380D02*
X59475595Y-70302380D01*
X59475595Y-69302380D01*
X59951785Y-69302380D01*
X60904166Y-70302380D02*
X60332738Y-70302380D01*
X60618452Y-70302380D02*
X60618452Y-69302380D01*
X60523214Y-69445238D01*
X60427976Y-69540476D01*
X60332738Y-69588095D01*
X54975595Y-59189880D02*
X54975595Y-58189880D01*
X55308928Y-58904166D01*
X55642261Y-58189880D01*
X55642261Y-59189880D01*
X56023214Y-58189880D02*
X56689880Y-59189880D01*
X56689880Y-58189880D02*
X56023214Y-59189880D01*
X57070833Y-58808928D02*
X57832738Y-58808928D01*
X58308928Y-59189880D02*
X58308928Y-58189880D01*
X58880357Y-59189880D01*
X58880357Y-58189880D01*
X59499404Y-59189880D02*
X59404166Y-59142261D01*
X59356547Y-59094642D01*
X59308928Y-58999404D01*
X59308928Y-58713690D01*
X59356547Y-58618452D01*
X59404166Y-58570833D01*
X59499404Y-58523214D01*
X59642261Y-58523214D01*
X59737500Y-58570833D01*
X59785119Y-58618452D01*
X59832738Y-58713690D01*
X59832738Y-58999404D01*
X59785119Y-59094642D01*
X59737500Y-59142261D01*
X59642261Y-59189880D01*
X59499404Y-59189880D01*
X60737500Y-59189880D02*
X60261309Y-59189880D01*
X60261309Y-58189880D01*
X61070833Y-58666071D02*
X61404166Y-58666071D01*
X61547023Y-59189880D02*
X61070833Y-59189880D01*
X61070833Y-58189880D01*
X61547023Y-58189880D01*
X61975595Y-59189880D02*
X61975595Y-58189880D01*
X62213690Y-58189880D01*
X62356547Y-58237500D01*
X62451785Y-58332738D01*
X62499404Y-58427976D01*
X62547023Y-58618452D01*
X62547023Y-58761309D01*
X62499404Y-58951785D01*
X62451785Y-59047023D01*
X62356547Y-59142261D01*
X62213690Y-59189880D01*
X61975595Y-59189880D01*
X-45846428Y-127452380D02*
X-45846428Y-126452380D01*
X-45513095Y-127166666D01*
X-45179761Y-126452380D01*
X-45179761Y-127452380D01*
X-44798809Y-126452380D02*
X-44132142Y-127452380D01*
X-44132142Y-126452380D02*
X-44798809Y-127452380D01*
X-43989285Y-127547619D02*
X-43227380Y-127547619D01*
X-42989285Y-127452380D02*
X-42989285Y-126452380D01*
X-42655952Y-127166666D01*
X-42322619Y-126452380D01*
X-42322619Y-127452380D01*
X-41894047Y-127166666D02*
X-41417857Y-127166666D01*
X-41989285Y-127452380D02*
X-41655952Y-126452380D01*
X-41322619Y-127452380D01*
X-40417857Y-127357142D02*
X-40465476Y-127404761D01*
X-40608333Y-127452380D01*
X-40703571Y-127452380D01*
X-40846428Y-127404761D01*
X-40941666Y-127309523D01*
X-40989285Y-127214285D01*
X-41036904Y-127023809D01*
X-41036904Y-126880952D01*
X-40989285Y-126690476D01*
X-40941666Y-126595238D01*
X-40846428Y-126500000D01*
X-40703571Y-126452380D01*
X-40608333Y-126452380D01*
X-40465476Y-126500000D01*
X-40417857Y-126547619D01*
X-39417857Y-127452380D02*
X-39751190Y-126976190D01*
X-39989285Y-127452380D02*
X-39989285Y-126452380D01*
X-39608333Y-126452380D01*
X-39513095Y-126500000D01*
X-39465476Y-126547619D01*
X-39417857Y-126642857D01*
X-39417857Y-126785714D01*
X-39465476Y-126880952D01*
X-39513095Y-126928571D01*
X-39608333Y-126976190D01*
X-39989285Y-126976190D01*
X-38798809Y-126452380D02*
X-38608333Y-126452380D01*
X-38513095Y-126500000D01*
X-38417857Y-126595238D01*
X-38370238Y-126785714D01*
X-38370238Y-127119047D01*
X-38417857Y-127309523D01*
X-38513095Y-127404761D01*
X-38608333Y-127452380D01*
X-38798809Y-127452380D01*
X-38894047Y-127404761D01*
X-38989285Y-127309523D01*
X-39036904Y-127119047D01*
X-39036904Y-126785714D01*
X-38989285Y-126595238D01*
X-38894047Y-126500000D01*
X-38798809Y-126452380D01*
X-38179761Y-127547619D02*
X-37417857Y-127547619D01*
X-37275000Y-126452380D02*
X-36608333Y-126452380D01*
X-37036904Y-127452380D01*
X-45036904Y-116339880D02*
X-45036904Y-115339880D01*
X-44703571Y-116054166D01*
X-44370238Y-115339880D01*
X-44370238Y-116339880D01*
X-43989285Y-115339880D02*
X-43322619Y-116339880D01*
X-43322619Y-115339880D02*
X-43989285Y-116339880D01*
X-42941666Y-115958928D02*
X-42179761Y-115958928D01*
X-41703571Y-116339880D02*
X-41703571Y-115339880D01*
X-41132142Y-116339880D01*
X-41132142Y-115339880D01*
X-40513095Y-116339880D02*
X-40608333Y-116292261D01*
X-40655952Y-116244642D01*
X-40703571Y-116149404D01*
X-40703571Y-115863690D01*
X-40655952Y-115768452D01*
X-40608333Y-115720833D01*
X-40513095Y-115673214D01*
X-40370238Y-115673214D01*
X-40275000Y-115720833D01*
X-40227380Y-115768452D01*
X-40179761Y-115863690D01*
X-40179761Y-116149404D01*
X-40227380Y-116244642D01*
X-40275000Y-116292261D01*
X-40370238Y-116339880D01*
X-40513095Y-116339880D01*
X-39275000Y-116339880D02*
X-39751190Y-116339880D01*
X-39751190Y-115339880D01*
X-38941666Y-115816071D02*
X-38608333Y-115816071D01*
X-38465476Y-116339880D02*
X-38941666Y-116339880D01*
X-38941666Y-115339880D01*
X-38465476Y-115339880D01*
X-38036904Y-116339880D02*
X-38036904Y-115339880D01*
X-37798809Y-115339880D01*
X-37655952Y-115387500D01*
X-37560714Y-115482738D01*
X-37513095Y-115577976D01*
X-37465476Y-115768452D01*
X-37465476Y-115911309D01*
X-37513095Y-116101785D01*
X-37560714Y-116197023D01*
X-37655952Y-116292261D01*
X-37798809Y-116339880D01*
X-38036904Y-116339880D01*
X-45846428Y-89352380D02*
X-45846428Y-88352380D01*
X-45513095Y-89066666D01*
X-45179761Y-88352380D01*
X-45179761Y-89352380D01*
X-44798809Y-88352380D02*
X-44132142Y-89352380D01*
X-44132142Y-88352380D02*
X-44798809Y-89352380D01*
X-43989285Y-89447619D02*
X-43227380Y-89447619D01*
X-42989285Y-89352380D02*
X-42989285Y-88352380D01*
X-42655952Y-89066666D01*
X-42322619Y-88352380D01*
X-42322619Y-89352380D01*
X-41894047Y-89066666D02*
X-41417857Y-89066666D01*
X-41989285Y-89352380D02*
X-41655952Y-88352380D01*
X-41322619Y-89352380D01*
X-40417857Y-89257142D02*
X-40465476Y-89304761D01*
X-40608333Y-89352380D01*
X-40703571Y-89352380D01*
X-40846428Y-89304761D01*
X-40941666Y-89209523D01*
X-40989285Y-89114285D01*
X-41036904Y-88923809D01*
X-41036904Y-88780952D01*
X-40989285Y-88590476D01*
X-40941666Y-88495238D01*
X-40846428Y-88400000D01*
X-40703571Y-88352380D01*
X-40608333Y-88352380D01*
X-40465476Y-88400000D01*
X-40417857Y-88447619D01*
X-39417857Y-89352380D02*
X-39751190Y-88876190D01*
X-39989285Y-89352380D02*
X-39989285Y-88352380D01*
X-39608333Y-88352380D01*
X-39513095Y-88400000D01*
X-39465476Y-88447619D01*
X-39417857Y-88542857D01*
X-39417857Y-88685714D01*
X-39465476Y-88780952D01*
X-39513095Y-88828571D01*
X-39608333Y-88876190D01*
X-39989285Y-88876190D01*
X-38798809Y-88352380D02*
X-38608333Y-88352380D01*
X-38513095Y-88400000D01*
X-38417857Y-88495238D01*
X-38370238Y-88685714D01*
X-38370238Y-89019047D01*
X-38417857Y-89209523D01*
X-38513095Y-89304761D01*
X-38608333Y-89352380D01*
X-38798809Y-89352380D01*
X-38894047Y-89304761D01*
X-38989285Y-89209523D01*
X-39036904Y-89019047D01*
X-39036904Y-88685714D01*
X-38989285Y-88495238D01*
X-38894047Y-88400000D01*
X-38798809Y-88352380D01*
X-38179761Y-89447619D02*
X-37417857Y-89447619D01*
X-37275000Y-88352380D02*
X-36655952Y-88352380D01*
X-36989285Y-88733333D01*
X-36846428Y-88733333D01*
X-36751190Y-88780952D01*
X-36703571Y-88828571D01*
X-36655952Y-88923809D01*
X-36655952Y-89161904D01*
X-36703571Y-89257142D01*
X-36751190Y-89304761D01*
X-36846428Y-89352380D01*
X-37132142Y-89352380D01*
X-37227380Y-89304761D01*
X-37275000Y-89257142D01*
X-45036904Y-78239880D02*
X-45036904Y-77239880D01*
X-44703571Y-77954166D01*
X-44370238Y-77239880D01*
X-44370238Y-78239880D01*
X-43989285Y-77239880D02*
X-43322619Y-78239880D01*
X-43322619Y-77239880D02*
X-43989285Y-78239880D01*
X-42941666Y-77858928D02*
X-42179761Y-77858928D01*
X-41703571Y-78239880D02*
X-41703571Y-77239880D01*
X-41132142Y-78239880D01*
X-41132142Y-77239880D01*
X-40513095Y-78239880D02*
X-40608333Y-78192261D01*
X-40655952Y-78144642D01*
X-40703571Y-78049404D01*
X-40703571Y-77763690D01*
X-40655952Y-77668452D01*
X-40608333Y-77620833D01*
X-40513095Y-77573214D01*
X-40370238Y-77573214D01*
X-40275000Y-77620833D01*
X-40227380Y-77668452D01*
X-40179761Y-77763690D01*
X-40179761Y-78049404D01*
X-40227380Y-78144642D01*
X-40275000Y-78192261D01*
X-40370238Y-78239880D01*
X-40513095Y-78239880D01*
X-39275000Y-78239880D02*
X-39751190Y-78239880D01*
X-39751190Y-77239880D01*
X-38941666Y-77716071D02*
X-38608333Y-77716071D01*
X-38465476Y-78239880D02*
X-38941666Y-78239880D01*
X-38941666Y-77239880D01*
X-38465476Y-77239880D01*
X-38036904Y-78239880D02*
X-38036904Y-77239880D01*
X-37798809Y-77239880D01*
X-37655952Y-77287500D01*
X-37560714Y-77382738D01*
X-37513095Y-77477976D01*
X-37465476Y-77668452D01*
X-37465476Y-77811309D01*
X-37513095Y-78001785D01*
X-37560714Y-78097023D01*
X-37655952Y-78192261D01*
X-37798809Y-78239880D01*
X-38036904Y-78239880D01*
X-45846428Y-108402380D02*
X-45846428Y-107402380D01*
X-45513095Y-108116666D01*
X-45179761Y-107402380D01*
X-45179761Y-108402380D01*
X-44798809Y-107402380D02*
X-44132142Y-108402380D01*
X-44132142Y-107402380D02*
X-44798809Y-108402380D01*
X-43989285Y-108497619D02*
X-43227380Y-108497619D01*
X-42989285Y-108402380D02*
X-42989285Y-107402380D01*
X-42655952Y-108116666D01*
X-42322619Y-107402380D01*
X-42322619Y-108402380D01*
X-41894047Y-108116666D02*
X-41417857Y-108116666D01*
X-41989285Y-108402380D02*
X-41655952Y-107402380D01*
X-41322619Y-108402380D01*
X-40417857Y-108307142D02*
X-40465476Y-108354761D01*
X-40608333Y-108402380D01*
X-40703571Y-108402380D01*
X-40846428Y-108354761D01*
X-40941666Y-108259523D01*
X-40989285Y-108164285D01*
X-41036904Y-107973809D01*
X-41036904Y-107830952D01*
X-40989285Y-107640476D01*
X-40941666Y-107545238D01*
X-40846428Y-107450000D01*
X-40703571Y-107402380D01*
X-40608333Y-107402380D01*
X-40465476Y-107450000D01*
X-40417857Y-107497619D01*
X-39417857Y-108402380D02*
X-39751190Y-107926190D01*
X-39989285Y-108402380D02*
X-39989285Y-107402380D01*
X-39608333Y-107402380D01*
X-39513095Y-107450000D01*
X-39465476Y-107497619D01*
X-39417857Y-107592857D01*
X-39417857Y-107735714D01*
X-39465476Y-107830952D01*
X-39513095Y-107878571D01*
X-39608333Y-107926190D01*
X-39989285Y-107926190D01*
X-38798809Y-107402380D02*
X-38608333Y-107402380D01*
X-38513095Y-107450000D01*
X-38417857Y-107545238D01*
X-38370238Y-107735714D01*
X-38370238Y-108069047D01*
X-38417857Y-108259523D01*
X-38513095Y-108354761D01*
X-38608333Y-108402380D01*
X-38798809Y-108402380D01*
X-38894047Y-108354761D01*
X-38989285Y-108259523D01*
X-39036904Y-108069047D01*
X-39036904Y-107735714D01*
X-38989285Y-107545238D01*
X-38894047Y-107450000D01*
X-38798809Y-107402380D01*
X-38179761Y-108497619D02*
X-37417857Y-108497619D01*
X-36703571Y-107402380D02*
X-37179761Y-107402380D01*
X-37227380Y-107878571D01*
X-37179761Y-107830952D01*
X-37084523Y-107783333D01*
X-36846428Y-107783333D01*
X-36751190Y-107830952D01*
X-36703571Y-107878571D01*
X-36655952Y-107973809D01*
X-36655952Y-108211904D01*
X-36703571Y-108307142D01*
X-36751190Y-108354761D01*
X-36846428Y-108402380D01*
X-37084523Y-108402380D01*
X-37179761Y-108354761D01*
X-37227380Y-108307142D01*
X-45036904Y-97289880D02*
X-45036904Y-96289880D01*
X-44703571Y-97004166D01*
X-44370238Y-96289880D01*
X-44370238Y-97289880D01*
X-43989285Y-96289880D02*
X-43322619Y-97289880D01*
X-43322619Y-96289880D02*
X-43989285Y-97289880D01*
X-42941666Y-96908928D02*
X-42179761Y-96908928D01*
X-41703571Y-97289880D02*
X-41703571Y-96289880D01*
X-41132142Y-97289880D01*
X-41132142Y-96289880D01*
X-40513095Y-97289880D02*
X-40608333Y-97242261D01*
X-40655952Y-97194642D01*
X-40703571Y-97099404D01*
X-40703571Y-96813690D01*
X-40655952Y-96718452D01*
X-40608333Y-96670833D01*
X-40513095Y-96623214D01*
X-40370238Y-96623214D01*
X-40275000Y-96670833D01*
X-40227380Y-96718452D01*
X-40179761Y-96813690D01*
X-40179761Y-97099404D01*
X-40227380Y-97194642D01*
X-40275000Y-97242261D01*
X-40370238Y-97289880D01*
X-40513095Y-97289880D01*
X-39275000Y-97289880D02*
X-39751190Y-97289880D01*
X-39751190Y-96289880D01*
X-38941666Y-96766071D02*
X-38608333Y-96766071D01*
X-38465476Y-97289880D02*
X-38941666Y-97289880D01*
X-38941666Y-96289880D01*
X-38465476Y-96289880D01*
X-38036904Y-97289880D02*
X-38036904Y-96289880D01*
X-37798809Y-96289880D01*
X-37655952Y-96337500D01*
X-37560714Y-96432738D01*
X-37513095Y-96527976D01*
X-37465476Y-96718452D01*
X-37465476Y-96861309D01*
X-37513095Y-97051785D01*
X-37560714Y-97147023D01*
X-37655952Y-97242261D01*
X-37798809Y-97289880D01*
X-38036904Y-97289880D01*
X-26796428Y-108402380D02*
X-26796428Y-107402380D01*
X-26463095Y-108116666D01*
X-26129761Y-107402380D01*
X-26129761Y-108402380D01*
X-25748809Y-107402380D02*
X-25082142Y-108402380D01*
X-25082142Y-107402380D02*
X-25748809Y-108402380D01*
X-24939285Y-108497619D02*
X-24177380Y-108497619D01*
X-23939285Y-108402380D02*
X-23939285Y-107402380D01*
X-23605952Y-108116666D01*
X-23272619Y-107402380D01*
X-23272619Y-108402380D01*
X-22844047Y-108116666D02*
X-22367857Y-108116666D01*
X-22939285Y-108402380D02*
X-22605952Y-107402380D01*
X-22272619Y-108402380D01*
X-21367857Y-108307142D02*
X-21415476Y-108354761D01*
X-21558333Y-108402380D01*
X-21653571Y-108402380D01*
X-21796428Y-108354761D01*
X-21891666Y-108259523D01*
X-21939285Y-108164285D01*
X-21986904Y-107973809D01*
X-21986904Y-107830952D01*
X-21939285Y-107640476D01*
X-21891666Y-107545238D01*
X-21796428Y-107450000D01*
X-21653571Y-107402380D01*
X-21558333Y-107402380D01*
X-21415476Y-107450000D01*
X-21367857Y-107497619D01*
X-20367857Y-108402380D02*
X-20701190Y-107926190D01*
X-20939285Y-108402380D02*
X-20939285Y-107402380D01*
X-20558333Y-107402380D01*
X-20463095Y-107450000D01*
X-20415476Y-107497619D01*
X-20367857Y-107592857D01*
X-20367857Y-107735714D01*
X-20415476Y-107830952D01*
X-20463095Y-107878571D01*
X-20558333Y-107926190D01*
X-20939285Y-107926190D01*
X-19748809Y-107402380D02*
X-19558333Y-107402380D01*
X-19463095Y-107450000D01*
X-19367857Y-107545238D01*
X-19320238Y-107735714D01*
X-19320238Y-108069047D01*
X-19367857Y-108259523D01*
X-19463095Y-108354761D01*
X-19558333Y-108402380D01*
X-19748809Y-108402380D01*
X-19844047Y-108354761D01*
X-19939285Y-108259523D01*
X-19986904Y-108069047D01*
X-19986904Y-107735714D01*
X-19939285Y-107545238D01*
X-19844047Y-107450000D01*
X-19748809Y-107402380D01*
X-19129761Y-108497619D02*
X-18367857Y-108497619D01*
X-17701190Y-107402380D02*
X-17891666Y-107402380D01*
X-17986904Y-107450000D01*
X-18034523Y-107497619D01*
X-18129761Y-107640476D01*
X-18177380Y-107830952D01*
X-18177380Y-108211904D01*
X-18129761Y-108307142D01*
X-18082142Y-108354761D01*
X-17986904Y-108402380D01*
X-17796428Y-108402380D01*
X-17701190Y-108354761D01*
X-17653571Y-108307142D01*
X-17605952Y-108211904D01*
X-17605952Y-107973809D01*
X-17653571Y-107878571D01*
X-17701190Y-107830952D01*
X-17796428Y-107783333D01*
X-17986904Y-107783333D01*
X-18082142Y-107830952D01*
X-18129761Y-107878571D01*
X-18177380Y-107973809D01*
X-25986904Y-97289880D02*
X-25986904Y-96289880D01*
X-25653571Y-97004166D01*
X-25320238Y-96289880D01*
X-25320238Y-97289880D01*
X-24939285Y-96289880D02*
X-24272619Y-97289880D01*
X-24272619Y-96289880D02*
X-24939285Y-97289880D01*
X-23891666Y-96908928D02*
X-23129761Y-96908928D01*
X-22653571Y-97289880D02*
X-22653571Y-96289880D01*
X-22082142Y-97289880D01*
X-22082142Y-96289880D01*
X-21463095Y-97289880D02*
X-21558333Y-97242261D01*
X-21605952Y-97194642D01*
X-21653571Y-97099404D01*
X-21653571Y-96813690D01*
X-21605952Y-96718452D01*
X-21558333Y-96670833D01*
X-21463095Y-96623214D01*
X-21320238Y-96623214D01*
X-21225000Y-96670833D01*
X-21177380Y-96718452D01*
X-21129761Y-96813690D01*
X-21129761Y-97099404D01*
X-21177380Y-97194642D01*
X-21225000Y-97242261D01*
X-21320238Y-97289880D01*
X-21463095Y-97289880D01*
X-20225000Y-97289880D02*
X-20701190Y-97289880D01*
X-20701190Y-96289880D01*
X-19891666Y-96766071D02*
X-19558333Y-96766071D01*
X-19415476Y-97289880D02*
X-19891666Y-97289880D01*
X-19891666Y-96289880D01*
X-19415476Y-96289880D01*
X-18986904Y-97289880D02*
X-18986904Y-96289880D01*
X-18748809Y-96289880D01*
X-18605952Y-96337500D01*
X-18510714Y-96432738D01*
X-18463095Y-96527976D01*
X-18415476Y-96718452D01*
X-18415476Y-96861309D01*
X-18463095Y-97051785D01*
X-18510714Y-97147023D01*
X-18605952Y-97242261D01*
X-18748809Y-97289880D01*
X-18986904Y-97289880D01*
X-26796428Y-70302380D02*
X-26796428Y-69302380D01*
X-26463095Y-70016666D01*
X-26129761Y-69302380D01*
X-26129761Y-70302380D01*
X-25748809Y-69302380D02*
X-25082142Y-70302380D01*
X-25082142Y-69302380D02*
X-25748809Y-70302380D01*
X-24939285Y-70397619D02*
X-24177380Y-70397619D01*
X-23939285Y-70302380D02*
X-23939285Y-69302380D01*
X-23605952Y-70016666D01*
X-23272619Y-69302380D01*
X-23272619Y-70302380D01*
X-22844047Y-70016666D02*
X-22367857Y-70016666D01*
X-22939285Y-70302380D02*
X-22605952Y-69302380D01*
X-22272619Y-70302380D01*
X-21367857Y-70207142D02*
X-21415476Y-70254761D01*
X-21558333Y-70302380D01*
X-21653571Y-70302380D01*
X-21796428Y-70254761D01*
X-21891666Y-70159523D01*
X-21939285Y-70064285D01*
X-21986904Y-69873809D01*
X-21986904Y-69730952D01*
X-21939285Y-69540476D01*
X-21891666Y-69445238D01*
X-21796428Y-69350000D01*
X-21653571Y-69302380D01*
X-21558333Y-69302380D01*
X-21415476Y-69350000D01*
X-21367857Y-69397619D01*
X-20367857Y-70302380D02*
X-20701190Y-69826190D01*
X-20939285Y-70302380D02*
X-20939285Y-69302380D01*
X-20558333Y-69302380D01*
X-20463095Y-69350000D01*
X-20415476Y-69397619D01*
X-20367857Y-69492857D01*
X-20367857Y-69635714D01*
X-20415476Y-69730952D01*
X-20463095Y-69778571D01*
X-20558333Y-69826190D01*
X-20939285Y-69826190D01*
X-19748809Y-69302380D02*
X-19558333Y-69302380D01*
X-19463095Y-69350000D01*
X-19367857Y-69445238D01*
X-19320238Y-69635714D01*
X-19320238Y-69969047D01*
X-19367857Y-70159523D01*
X-19463095Y-70254761D01*
X-19558333Y-70302380D01*
X-19748809Y-70302380D01*
X-19844047Y-70254761D01*
X-19939285Y-70159523D01*
X-19986904Y-69969047D01*
X-19986904Y-69635714D01*
X-19939285Y-69445238D01*
X-19844047Y-69350000D01*
X-19748809Y-69302380D01*
X-19129761Y-70397619D02*
X-18367857Y-70397619D01*
X-18177380Y-69397619D02*
X-18129761Y-69350000D01*
X-18034523Y-69302380D01*
X-17796428Y-69302380D01*
X-17701190Y-69350000D01*
X-17653571Y-69397619D01*
X-17605952Y-69492857D01*
X-17605952Y-69588095D01*
X-17653571Y-69730952D01*
X-18225000Y-70302380D01*
X-17605952Y-70302380D01*
X-25986904Y-59189880D02*
X-25986904Y-58189880D01*
X-25653571Y-58904166D01*
X-25320238Y-58189880D01*
X-25320238Y-59189880D01*
X-24939285Y-58189880D02*
X-24272619Y-59189880D01*
X-24272619Y-58189880D02*
X-24939285Y-59189880D01*
X-23891666Y-58808928D02*
X-23129761Y-58808928D01*
X-22653571Y-59189880D02*
X-22653571Y-58189880D01*
X-22082142Y-59189880D01*
X-22082142Y-58189880D01*
X-21463095Y-59189880D02*
X-21558333Y-59142261D01*
X-21605952Y-59094642D01*
X-21653571Y-58999404D01*
X-21653571Y-58713690D01*
X-21605952Y-58618452D01*
X-21558333Y-58570833D01*
X-21463095Y-58523214D01*
X-21320238Y-58523214D01*
X-21225000Y-58570833D01*
X-21177380Y-58618452D01*
X-21129761Y-58713690D01*
X-21129761Y-58999404D01*
X-21177380Y-59094642D01*
X-21225000Y-59142261D01*
X-21320238Y-59189880D01*
X-21463095Y-59189880D01*
X-20225000Y-59189880D02*
X-20701190Y-59189880D01*
X-20701190Y-58189880D01*
X-19891666Y-58666071D02*
X-19558333Y-58666071D01*
X-19415476Y-59189880D02*
X-19891666Y-59189880D01*
X-19891666Y-58189880D01*
X-19415476Y-58189880D01*
X-18986904Y-59189880D02*
X-18986904Y-58189880D01*
X-18748809Y-58189880D01*
X-18605952Y-58237500D01*
X-18510714Y-58332738D01*
X-18463095Y-58427976D01*
X-18415476Y-58618452D01*
X-18415476Y-58761309D01*
X-18463095Y-58951785D01*
X-18510714Y-59047023D01*
X-18605952Y-59142261D01*
X-18748809Y-59189880D01*
X-18986904Y-59189880D01*
X-45846428Y-70302380D02*
X-45846428Y-69302380D01*
X-45513095Y-70016666D01*
X-45179761Y-69302380D01*
X-45179761Y-70302380D01*
X-44798809Y-69302380D02*
X-44132142Y-70302380D01*
X-44132142Y-69302380D02*
X-44798809Y-70302380D01*
X-43989285Y-70397619D02*
X-43227380Y-70397619D01*
X-42989285Y-70302380D02*
X-42989285Y-69302380D01*
X-42655952Y-70016666D01*
X-42322619Y-69302380D01*
X-42322619Y-70302380D01*
X-41894047Y-70016666D02*
X-41417857Y-70016666D01*
X-41989285Y-70302380D02*
X-41655952Y-69302380D01*
X-41322619Y-70302380D01*
X-40417857Y-70207142D02*
X-40465476Y-70254761D01*
X-40608333Y-70302380D01*
X-40703571Y-70302380D01*
X-40846428Y-70254761D01*
X-40941666Y-70159523D01*
X-40989285Y-70064285D01*
X-41036904Y-69873809D01*
X-41036904Y-69730952D01*
X-40989285Y-69540476D01*
X-40941666Y-69445238D01*
X-40846428Y-69350000D01*
X-40703571Y-69302380D01*
X-40608333Y-69302380D01*
X-40465476Y-69350000D01*
X-40417857Y-69397619D01*
X-39417857Y-70302380D02*
X-39751190Y-69826190D01*
X-39989285Y-70302380D02*
X-39989285Y-69302380D01*
X-39608333Y-69302380D01*
X-39513095Y-69350000D01*
X-39465476Y-69397619D01*
X-39417857Y-69492857D01*
X-39417857Y-69635714D01*
X-39465476Y-69730952D01*
X-39513095Y-69778571D01*
X-39608333Y-69826190D01*
X-39989285Y-69826190D01*
X-38798809Y-69302380D02*
X-38608333Y-69302380D01*
X-38513095Y-69350000D01*
X-38417857Y-69445238D01*
X-38370238Y-69635714D01*
X-38370238Y-69969047D01*
X-38417857Y-70159523D01*
X-38513095Y-70254761D01*
X-38608333Y-70302380D01*
X-38798809Y-70302380D01*
X-38894047Y-70254761D01*
X-38989285Y-70159523D01*
X-39036904Y-69969047D01*
X-39036904Y-69635714D01*
X-38989285Y-69445238D01*
X-38894047Y-69350000D01*
X-38798809Y-69302380D01*
X-38179761Y-70397619D02*
X-37417857Y-70397619D01*
X-36655952Y-70302380D02*
X-37227380Y-70302380D01*
X-36941666Y-70302380D02*
X-36941666Y-69302380D01*
X-37036904Y-69445238D01*
X-37132142Y-69540476D01*
X-37227380Y-69588095D01*
X-45036904Y-59189880D02*
X-45036904Y-58189880D01*
X-44703571Y-58904166D01*
X-44370238Y-58189880D01*
X-44370238Y-59189880D01*
X-43989285Y-58189880D02*
X-43322619Y-59189880D01*
X-43322619Y-58189880D02*
X-43989285Y-59189880D01*
X-42941666Y-58808928D02*
X-42179761Y-58808928D01*
X-41703571Y-59189880D02*
X-41703571Y-58189880D01*
X-41132142Y-59189880D01*
X-41132142Y-58189880D01*
X-40513095Y-59189880D02*
X-40608333Y-59142261D01*
X-40655952Y-59094642D01*
X-40703571Y-58999404D01*
X-40703571Y-58713690D01*
X-40655952Y-58618452D01*
X-40608333Y-58570833D01*
X-40513095Y-58523214D01*
X-40370238Y-58523214D01*
X-40275000Y-58570833D01*
X-40227380Y-58618452D01*
X-40179761Y-58713690D01*
X-40179761Y-58999404D01*
X-40227380Y-59094642D01*
X-40275000Y-59142261D01*
X-40370238Y-59189880D01*
X-40513095Y-59189880D01*
X-39275000Y-59189880D02*
X-39751190Y-59189880D01*
X-39751190Y-58189880D01*
X-38941666Y-58666071D02*
X-38608333Y-58666071D01*
X-38465476Y-59189880D02*
X-38941666Y-59189880D01*
X-38941666Y-58189880D01*
X-38465476Y-58189880D01*
X-38036904Y-59189880D02*
X-38036904Y-58189880D01*
X-37798809Y-58189880D01*
X-37655952Y-58237500D01*
X-37560714Y-58332738D01*
X-37513095Y-58427976D01*
X-37465476Y-58618452D01*
X-37465476Y-58761309D01*
X-37513095Y-58951785D01*
X-37560714Y-59047023D01*
X-37655952Y-59142261D01*
X-37798809Y-59189880D01*
X-38036904Y-59189880D01*
X-26796428Y-127452380D02*
X-26796428Y-126452380D01*
X-26463095Y-127166666D01*
X-26129761Y-126452380D01*
X-26129761Y-127452380D01*
X-25748809Y-126452380D02*
X-25082142Y-127452380D01*
X-25082142Y-126452380D02*
X-25748809Y-127452380D01*
X-24939285Y-127547619D02*
X-24177380Y-127547619D01*
X-23939285Y-127452380D02*
X-23939285Y-126452380D01*
X-23605952Y-127166666D01*
X-23272619Y-126452380D01*
X-23272619Y-127452380D01*
X-22844047Y-127166666D02*
X-22367857Y-127166666D01*
X-22939285Y-127452380D02*
X-22605952Y-126452380D01*
X-22272619Y-127452380D01*
X-21367857Y-127357142D02*
X-21415476Y-127404761D01*
X-21558333Y-127452380D01*
X-21653571Y-127452380D01*
X-21796428Y-127404761D01*
X-21891666Y-127309523D01*
X-21939285Y-127214285D01*
X-21986904Y-127023809D01*
X-21986904Y-126880952D01*
X-21939285Y-126690476D01*
X-21891666Y-126595238D01*
X-21796428Y-126500000D01*
X-21653571Y-126452380D01*
X-21558333Y-126452380D01*
X-21415476Y-126500000D01*
X-21367857Y-126547619D01*
X-20367857Y-127452380D02*
X-20701190Y-126976190D01*
X-20939285Y-127452380D02*
X-20939285Y-126452380D01*
X-20558333Y-126452380D01*
X-20463095Y-126500000D01*
X-20415476Y-126547619D01*
X-20367857Y-126642857D01*
X-20367857Y-126785714D01*
X-20415476Y-126880952D01*
X-20463095Y-126928571D01*
X-20558333Y-126976190D01*
X-20939285Y-126976190D01*
X-19748809Y-126452380D02*
X-19558333Y-126452380D01*
X-19463095Y-126500000D01*
X-19367857Y-126595238D01*
X-19320238Y-126785714D01*
X-19320238Y-127119047D01*
X-19367857Y-127309523D01*
X-19463095Y-127404761D01*
X-19558333Y-127452380D01*
X-19748809Y-127452380D01*
X-19844047Y-127404761D01*
X-19939285Y-127309523D01*
X-19986904Y-127119047D01*
X-19986904Y-126785714D01*
X-19939285Y-126595238D01*
X-19844047Y-126500000D01*
X-19748809Y-126452380D01*
X-19129761Y-127547619D02*
X-18367857Y-127547619D01*
X-17986904Y-126880952D02*
X-18082142Y-126833333D01*
X-18129761Y-126785714D01*
X-18177380Y-126690476D01*
X-18177380Y-126642857D01*
X-18129761Y-126547619D01*
X-18082142Y-126500000D01*
X-17986904Y-126452380D01*
X-17796428Y-126452380D01*
X-17701190Y-126500000D01*
X-17653571Y-126547619D01*
X-17605952Y-126642857D01*
X-17605952Y-126690476D01*
X-17653571Y-126785714D01*
X-17701190Y-126833333D01*
X-17796428Y-126880952D01*
X-17986904Y-126880952D01*
X-18082142Y-126928571D01*
X-18129761Y-126976190D01*
X-18177380Y-127071428D01*
X-18177380Y-127261904D01*
X-18129761Y-127357142D01*
X-18082142Y-127404761D01*
X-17986904Y-127452380D01*
X-17796428Y-127452380D01*
X-17701190Y-127404761D01*
X-17653571Y-127357142D01*
X-17605952Y-127261904D01*
X-17605952Y-127071428D01*
X-17653571Y-126976190D01*
X-17701190Y-126928571D01*
X-17796428Y-126880952D01*
X-25986904Y-116339880D02*
X-25986904Y-115339880D01*
X-25653571Y-116054166D01*
X-25320238Y-115339880D01*
X-25320238Y-116339880D01*
X-24939285Y-115339880D02*
X-24272619Y-116339880D01*
X-24272619Y-115339880D02*
X-24939285Y-116339880D01*
X-23891666Y-115958928D02*
X-23129761Y-115958928D01*
X-22653571Y-116339880D02*
X-22653571Y-115339880D01*
X-22082142Y-116339880D01*
X-22082142Y-115339880D01*
X-21463095Y-116339880D02*
X-21558333Y-116292261D01*
X-21605952Y-116244642D01*
X-21653571Y-116149404D01*
X-21653571Y-115863690D01*
X-21605952Y-115768452D01*
X-21558333Y-115720833D01*
X-21463095Y-115673214D01*
X-21320238Y-115673214D01*
X-21225000Y-115720833D01*
X-21177380Y-115768452D01*
X-21129761Y-115863690D01*
X-21129761Y-116149404D01*
X-21177380Y-116244642D01*
X-21225000Y-116292261D01*
X-21320238Y-116339880D01*
X-21463095Y-116339880D01*
X-20225000Y-116339880D02*
X-20701190Y-116339880D01*
X-20701190Y-115339880D01*
X-19891666Y-115816071D02*
X-19558333Y-115816071D01*
X-19415476Y-116339880D02*
X-19891666Y-116339880D01*
X-19891666Y-115339880D01*
X-19415476Y-115339880D01*
X-18986904Y-116339880D02*
X-18986904Y-115339880D01*
X-18748809Y-115339880D01*
X-18605952Y-115387500D01*
X-18510714Y-115482738D01*
X-18463095Y-115577976D01*
X-18415476Y-115768452D01*
X-18415476Y-115911309D01*
X-18463095Y-116101785D01*
X-18510714Y-116197023D01*
X-18605952Y-116292261D01*
X-18748809Y-116339880D01*
X-18986904Y-116339880D01*
X-26796428Y-89352380D02*
X-26796428Y-88352380D01*
X-26463095Y-89066666D01*
X-26129761Y-88352380D01*
X-26129761Y-89352380D01*
X-25748809Y-88352380D02*
X-25082142Y-89352380D01*
X-25082142Y-88352380D02*
X-25748809Y-89352380D01*
X-24939285Y-89447619D02*
X-24177380Y-89447619D01*
X-23939285Y-89352380D02*
X-23939285Y-88352380D01*
X-23605952Y-89066666D01*
X-23272619Y-88352380D01*
X-23272619Y-89352380D01*
X-22844047Y-89066666D02*
X-22367857Y-89066666D01*
X-22939285Y-89352380D02*
X-22605952Y-88352380D01*
X-22272619Y-89352380D01*
X-21367857Y-89257142D02*
X-21415476Y-89304761D01*
X-21558333Y-89352380D01*
X-21653571Y-89352380D01*
X-21796428Y-89304761D01*
X-21891666Y-89209523D01*
X-21939285Y-89114285D01*
X-21986904Y-88923809D01*
X-21986904Y-88780952D01*
X-21939285Y-88590476D01*
X-21891666Y-88495238D01*
X-21796428Y-88400000D01*
X-21653571Y-88352380D01*
X-21558333Y-88352380D01*
X-21415476Y-88400000D01*
X-21367857Y-88447619D01*
X-20367857Y-89352380D02*
X-20701190Y-88876190D01*
X-20939285Y-89352380D02*
X-20939285Y-88352380D01*
X-20558333Y-88352380D01*
X-20463095Y-88400000D01*
X-20415476Y-88447619D01*
X-20367857Y-88542857D01*
X-20367857Y-88685714D01*
X-20415476Y-88780952D01*
X-20463095Y-88828571D01*
X-20558333Y-88876190D01*
X-20939285Y-88876190D01*
X-19748809Y-88352380D02*
X-19558333Y-88352380D01*
X-19463095Y-88400000D01*
X-19367857Y-88495238D01*
X-19320238Y-88685714D01*
X-19320238Y-89019047D01*
X-19367857Y-89209523D01*
X-19463095Y-89304761D01*
X-19558333Y-89352380D01*
X-19748809Y-89352380D01*
X-19844047Y-89304761D01*
X-19939285Y-89209523D01*
X-19986904Y-89019047D01*
X-19986904Y-88685714D01*
X-19939285Y-88495238D01*
X-19844047Y-88400000D01*
X-19748809Y-88352380D01*
X-19129761Y-89447619D02*
X-18367857Y-89447619D01*
X-17701190Y-88685714D02*
X-17701190Y-89352380D01*
X-17939285Y-88304761D02*
X-18177380Y-89019047D01*
X-17558333Y-89019047D01*
X-25986904Y-78335119D02*
X-25225000Y-78335119D01*
X-24986904Y-78239880D02*
X-24986904Y-77239880D01*
X-24653571Y-77954166D01*
X-24320238Y-77239880D01*
X-24320238Y-78239880D01*
X-23891666Y-77954166D02*
X-23415476Y-77954166D01*
X-23986904Y-78239880D02*
X-23653571Y-77239880D01*
X-23320238Y-78239880D01*
X-22415476Y-78144642D02*
X-22463095Y-78192261D01*
X-22605952Y-78239880D01*
X-22701190Y-78239880D01*
X-22844047Y-78192261D01*
X-22939285Y-78097023D01*
X-22986904Y-78001785D01*
X-23034523Y-77811309D01*
X-23034523Y-77668452D01*
X-22986904Y-77477976D01*
X-22939285Y-77382738D01*
X-22844047Y-77287500D01*
X-22701190Y-77239880D01*
X-22605952Y-77239880D01*
X-22463095Y-77287500D01*
X-22415476Y-77335119D01*
X-21415476Y-78239880D02*
X-21748809Y-77763690D01*
X-21986904Y-78239880D02*
X-21986904Y-77239880D01*
X-21605952Y-77239880D01*
X-21510714Y-77287500D01*
X-21463095Y-77335119D01*
X-21415476Y-77430357D01*
X-21415476Y-77573214D01*
X-21463095Y-77668452D01*
X-21510714Y-77716071D01*
X-21605952Y-77763690D01*
X-21986904Y-77763690D01*
X-20796428Y-77239880D02*
X-20605952Y-77239880D01*
X-20510714Y-77287500D01*
X-20415476Y-77382738D01*
X-20367857Y-77573214D01*
X-20367857Y-77906547D01*
X-20415476Y-78097023D01*
X-20510714Y-78192261D01*
X-20605952Y-78239880D01*
X-20796428Y-78239880D01*
X-20891666Y-78192261D01*
X-20986904Y-78097023D01*
X-21034523Y-77906547D01*
X-21034523Y-77573214D01*
X-20986904Y-77382738D01*
X-20891666Y-77287500D01*
X-20796428Y-77239880D01*
X-20177380Y-78335119D02*
X-19415476Y-78335119D01*
X-18748809Y-77573214D02*
X-18748809Y-78239880D01*
X-18986904Y-77192261D02*
X-19225000Y-77906547D01*
X-18605952Y-77906547D01*
M02*
