G04 #@! TF.GenerationSoftware,KiCad,Pcbnew,(5.1.4)-1*
G04 #@! TF.CreationDate,2020-11-20T09:34:24-08:00*
G04 #@! TF.ProjectId,_autosave-_autosave-_autosave-_autosave-uwu-55,5f617574-6f73-4617-9665-2d5f6175746f,rev?*
G04 #@! TF.SameCoordinates,Original*
G04 #@! TF.FileFunction,Other,Fab,Top*
%FSLAX46Y46*%
G04 Gerber Fmt 4.6, Leading zero omitted, Abs format (unit mm)*
G04 Created by KiCad (PCBNEW (5.1.4)-1) date 2020-11-20 09:34:24*
%MOMM*%
%LPD*%
G04 APERTURE LIST*
%ADD10C,0.150000*%
%ADD11C,0.100000*%
G04 APERTURE END LIST*
D10*
X-31932619Y-66396809D02*
X-32932619Y-66396809D01*
X-32932619Y-66015857D01*
X-32885000Y-65920619D01*
X-32837380Y-65873000D01*
X-32742142Y-65825380D01*
X-32599285Y-65825380D01*
X-32504047Y-65873000D01*
X-32456428Y-65920619D01*
X-32408809Y-66015857D01*
X-32408809Y-66396809D01*
X-31932619Y-65396809D02*
X-32599285Y-65396809D01*
X-32408809Y-65396809D02*
X-32504047Y-65349190D01*
X-32551666Y-65301571D01*
X-32599285Y-65206333D01*
X-32599285Y-65111095D01*
X-31932619Y-64634904D02*
X-31980238Y-64730142D01*
X-32027857Y-64777761D01*
X-32123095Y-64825380D01*
X-32408809Y-64825380D01*
X-32504047Y-64777761D01*
X-32551666Y-64730142D01*
X-32599285Y-64634904D01*
X-32599285Y-64492047D01*
X-32551666Y-64396809D01*
X-32504047Y-64349190D01*
X-32408809Y-64301571D01*
X-32123095Y-64301571D01*
X-32027857Y-64349190D01*
X-31980238Y-64396809D01*
X-31932619Y-64492047D01*
X-31932619Y-64634904D01*
X-31932619Y-63873000D02*
X-32932619Y-63873000D01*
X-32218333Y-63539666D01*
X-32932619Y-63206333D01*
X-31932619Y-63206333D01*
X-31932619Y-62730142D02*
X-32599285Y-62730142D01*
X-32932619Y-62730142D02*
X-32885000Y-62777761D01*
X-32837380Y-62730142D01*
X-32885000Y-62682523D01*
X-32932619Y-62730142D01*
X-32837380Y-62730142D01*
X-31980238Y-61825380D02*
X-31932619Y-61920619D01*
X-31932619Y-62111095D01*
X-31980238Y-62206333D01*
X-32027857Y-62253952D01*
X-32123095Y-62301571D01*
X-32408809Y-62301571D01*
X-32504047Y-62253952D01*
X-32551666Y-62206333D01*
X-32599285Y-62111095D01*
X-32599285Y-61920619D01*
X-32551666Y-61825380D01*
X-31932619Y-61396809D02*
X-32599285Y-61396809D01*
X-32408809Y-61396809D02*
X-32504047Y-61349190D01*
X-32551666Y-61301571D01*
X-32599285Y-61206333D01*
X-32599285Y-61111095D01*
X-31932619Y-60634904D02*
X-31980238Y-60730142D01*
X-32027857Y-60777761D01*
X-32123095Y-60825380D01*
X-32408809Y-60825380D01*
X-32504047Y-60777761D01*
X-32551666Y-60730142D01*
X-32599285Y-60634904D01*
X-32599285Y-60492047D01*
X-32551666Y-60396809D01*
X-32504047Y-60349190D01*
X-32408809Y-60301571D01*
X-32123095Y-60301571D01*
X-32027857Y-60349190D01*
X-31980238Y-60396809D01*
X-31932619Y-60492047D01*
X-31932619Y-60634904D01*
D11*
X68139583Y-49921666D02*
X67906250Y-49588333D01*
X67739583Y-49921666D02*
X67739583Y-49221666D01*
X68006250Y-49221666D01*
X68072916Y-49255000D01*
X68106250Y-49288333D01*
X68139583Y-49355000D01*
X68139583Y-49455000D01*
X68106250Y-49521666D01*
X68072916Y-49555000D01*
X68006250Y-49588333D01*
X67739583Y-49588333D01*
X68439583Y-49921666D02*
X68439583Y-49455000D01*
X68439583Y-49221666D02*
X68406250Y-49255000D01*
X68439583Y-49288333D01*
X68472916Y-49255000D01*
X68439583Y-49221666D01*
X68439583Y-49288333D01*
X68772916Y-49455000D02*
X68772916Y-49921666D01*
X68772916Y-49521666D02*
X68806250Y-49488333D01*
X68872916Y-49455000D01*
X68972916Y-49455000D01*
X69039583Y-49488333D01*
X69072916Y-49555000D01*
X69072916Y-49921666D01*
X69706250Y-49455000D02*
X69706250Y-50021666D01*
X69672916Y-50088333D01*
X69639583Y-50121666D01*
X69572916Y-50155000D01*
X69472916Y-50155000D01*
X69406250Y-50121666D01*
X69706250Y-49888333D02*
X69639583Y-49921666D01*
X69506250Y-49921666D01*
X69439583Y-49888333D01*
X69406250Y-49855000D01*
X69372916Y-49788333D01*
X69372916Y-49588333D01*
X69406250Y-49521666D01*
X69439583Y-49488333D01*
X69506250Y-49455000D01*
X69639583Y-49455000D01*
X69706250Y-49488333D01*
X70006250Y-49288333D02*
X70039583Y-49255000D01*
X70106250Y-49221666D01*
X70272916Y-49221666D01*
X70339583Y-49255000D01*
X70372916Y-49288333D01*
X70406250Y-49355000D01*
X70406250Y-49421666D01*
X70372916Y-49521666D01*
X69972916Y-49921666D01*
X70406250Y-49921666D01*
X68139583Y-52921666D02*
X67906250Y-52588333D01*
X67739583Y-52921666D02*
X67739583Y-52221666D01*
X68006250Y-52221666D01*
X68072916Y-52255000D01*
X68106250Y-52288333D01*
X68139583Y-52355000D01*
X68139583Y-52455000D01*
X68106250Y-52521666D01*
X68072916Y-52555000D01*
X68006250Y-52588333D01*
X67739583Y-52588333D01*
X68439583Y-52921666D02*
X68439583Y-52455000D01*
X68439583Y-52221666D02*
X68406250Y-52255000D01*
X68439583Y-52288333D01*
X68472916Y-52255000D01*
X68439583Y-52221666D01*
X68439583Y-52288333D01*
X68772916Y-52455000D02*
X68772916Y-52921666D01*
X68772916Y-52521666D02*
X68806250Y-52488333D01*
X68872916Y-52455000D01*
X68972916Y-52455000D01*
X69039583Y-52488333D01*
X69072916Y-52555000D01*
X69072916Y-52921666D01*
X69706250Y-52455000D02*
X69706250Y-53021666D01*
X69672916Y-53088333D01*
X69639583Y-53121666D01*
X69572916Y-53155000D01*
X69472916Y-53155000D01*
X69406250Y-53121666D01*
X69706250Y-52888333D02*
X69639583Y-52921666D01*
X69506250Y-52921666D01*
X69439583Y-52888333D01*
X69406250Y-52855000D01*
X69372916Y-52788333D01*
X69372916Y-52588333D01*
X69406250Y-52521666D01*
X69439583Y-52488333D01*
X69506250Y-52455000D01*
X69639583Y-52455000D01*
X69706250Y-52488333D01*
X70406250Y-52921666D02*
X70006250Y-52921666D01*
X70206250Y-52921666D02*
X70206250Y-52221666D01*
X70139583Y-52321666D01*
X70072916Y-52388333D01*
X70006250Y-52421666D01*
X68372916Y-55971666D02*
X68772916Y-55971666D01*
X68572916Y-56671666D02*
X68572916Y-55971666D01*
X69006250Y-56671666D02*
X69006250Y-56205000D01*
X69006250Y-55971666D02*
X68972916Y-56005000D01*
X69006250Y-56038333D01*
X69039583Y-56005000D01*
X69006250Y-55971666D01*
X69006250Y-56038333D01*
X69339583Y-56205000D02*
X69339583Y-56905000D01*
X69339583Y-56238333D02*
X69406250Y-56205000D01*
X69539583Y-56205000D01*
X69606250Y-56238333D01*
X69639583Y-56271666D01*
X69672916Y-56338333D01*
X69672916Y-56538333D01*
X69639583Y-56605000D01*
X69606250Y-56638333D01*
X69539583Y-56671666D01*
X69406250Y-56671666D01*
X69339583Y-56638333D01*
X67756250Y-58038333D02*
X67856250Y-58071666D01*
X68022916Y-58071666D01*
X68089583Y-58038333D01*
X68122916Y-58005000D01*
X68156250Y-57938333D01*
X68156250Y-57871666D01*
X68122916Y-57805000D01*
X68089583Y-57771666D01*
X68022916Y-57738333D01*
X67889583Y-57705000D01*
X67822916Y-57671666D01*
X67789583Y-57638333D01*
X67756250Y-57571666D01*
X67756250Y-57505000D01*
X67789583Y-57438333D01*
X67822916Y-57405000D01*
X67889583Y-57371666D01*
X68056250Y-57371666D01*
X68156250Y-57405000D01*
X68556250Y-58071666D02*
X68489583Y-58038333D01*
X68456250Y-57971666D01*
X68456250Y-57371666D01*
X69089583Y-58038333D02*
X69022916Y-58071666D01*
X68889583Y-58071666D01*
X68822916Y-58038333D01*
X68789583Y-57971666D01*
X68789583Y-57705000D01*
X68822916Y-57638333D01*
X68889583Y-57605000D01*
X69022916Y-57605000D01*
X69089583Y-57638333D01*
X69122916Y-57705000D01*
X69122916Y-57771666D01*
X68789583Y-57838333D01*
X69689583Y-58038333D02*
X69622916Y-58071666D01*
X69489583Y-58071666D01*
X69422916Y-58038333D01*
X69389583Y-57971666D01*
X69389583Y-57705000D01*
X69422916Y-57638333D01*
X69489583Y-57605000D01*
X69622916Y-57605000D01*
X69689583Y-57638333D01*
X69722916Y-57705000D01*
X69722916Y-57771666D01*
X69389583Y-57838333D01*
X69956250Y-57605000D02*
X70122916Y-58071666D01*
X70289583Y-57605000D01*
X70822916Y-58038333D02*
X70756250Y-58071666D01*
X70622916Y-58071666D01*
X70556250Y-58038333D01*
X70522916Y-57971666D01*
X70522916Y-57705000D01*
X70556250Y-57638333D01*
X70622916Y-57605000D01*
X70756250Y-57605000D01*
X70822916Y-57638333D01*
X70856250Y-57705000D01*
X70856250Y-57771666D01*
X70522916Y-57838333D01*
M02*
