G04 #@! TF.GenerationSoftware,KiCad,Pcbnew,(5.1.4)-1*
G04 #@! TF.CreationDate,2020-12-24T16:56:26-08:00*
G04 #@! TF.ProjectId,fracture-pcb-final,66726163-7475-4726-952d-7063622d6669,rev?*
G04 #@! TF.SameCoordinates,Original*
G04 #@! TF.FileFunction,Other,Fab,Top*
%FSLAX46Y46*%
G04 Gerber Fmt 4.6, Leading zero omitted, Abs format (unit mm)*
G04 Created by KiCad (PCBNEW (5.1.4)-1) date 2020-12-24 16:56:26*
%MOMM*%
%LPD*%
G04 APERTURE LIST*
%ADD10C,0.150000*%
%ADD11C,0.100000*%
G04 APERTURE END LIST*
D10*
X-31932619Y-66396809D02*
X-32932619Y-66396809D01*
X-32932619Y-66015857D01*
X-32885000Y-65920619D01*
X-32837380Y-65873000D01*
X-32742142Y-65825380D01*
X-32599285Y-65825380D01*
X-32504047Y-65873000D01*
X-32456428Y-65920619D01*
X-32408809Y-66015857D01*
X-32408809Y-66396809D01*
X-31932619Y-65396809D02*
X-32599285Y-65396809D01*
X-32408809Y-65396809D02*
X-32504047Y-65349190D01*
X-32551666Y-65301571D01*
X-32599285Y-65206333D01*
X-32599285Y-65111095D01*
X-31932619Y-64634904D02*
X-31980238Y-64730142D01*
X-32027857Y-64777761D01*
X-32123095Y-64825380D01*
X-32408809Y-64825380D01*
X-32504047Y-64777761D01*
X-32551666Y-64730142D01*
X-32599285Y-64634904D01*
X-32599285Y-64492047D01*
X-32551666Y-64396809D01*
X-32504047Y-64349190D01*
X-32408809Y-64301571D01*
X-32123095Y-64301571D01*
X-32027857Y-64349190D01*
X-31980238Y-64396809D01*
X-31932619Y-64492047D01*
X-31932619Y-64634904D01*
X-31932619Y-63873000D02*
X-32932619Y-63873000D01*
X-32218333Y-63539666D01*
X-32932619Y-63206333D01*
X-31932619Y-63206333D01*
X-31932619Y-62730142D02*
X-32599285Y-62730142D01*
X-32932619Y-62730142D02*
X-32885000Y-62777761D01*
X-32837380Y-62730142D01*
X-32885000Y-62682523D01*
X-32932619Y-62730142D01*
X-32837380Y-62730142D01*
X-31980238Y-61825380D02*
X-31932619Y-61920619D01*
X-31932619Y-62111095D01*
X-31980238Y-62206333D01*
X-32027857Y-62253952D01*
X-32123095Y-62301571D01*
X-32408809Y-62301571D01*
X-32504047Y-62253952D01*
X-32551666Y-62206333D01*
X-32599285Y-62111095D01*
X-32599285Y-61920619D01*
X-32551666Y-61825380D01*
X-31932619Y-61396809D02*
X-32599285Y-61396809D01*
X-32408809Y-61396809D02*
X-32504047Y-61349190D01*
X-32551666Y-61301571D01*
X-32599285Y-61206333D01*
X-32599285Y-61111095D01*
X-31932619Y-60634904D02*
X-31980238Y-60730142D01*
X-32027857Y-60777761D01*
X-32123095Y-60825380D01*
X-32408809Y-60825380D01*
X-32504047Y-60777761D01*
X-32551666Y-60730142D01*
X-32599285Y-60634904D01*
X-32599285Y-60492047D01*
X-32551666Y-60396809D01*
X-32504047Y-60349190D01*
X-32408809Y-60301571D01*
X-32123095Y-60301571D01*
X-32027857Y-60349190D01*
X-31980238Y-60396809D01*
X-31932619Y-60492047D01*
X-31932619Y-60634904D01*
D11*
X68139583Y-51191666D02*
X67906250Y-50858333D01*
X67739583Y-51191666D02*
X67739583Y-50491666D01*
X68006250Y-50491666D01*
X68072916Y-50525000D01*
X68106250Y-50558333D01*
X68139583Y-50625000D01*
X68139583Y-50725000D01*
X68106250Y-50791666D01*
X68072916Y-50825000D01*
X68006250Y-50858333D01*
X67739583Y-50858333D01*
X68439583Y-51191666D02*
X68439583Y-50725000D01*
X68439583Y-50491666D02*
X68406250Y-50525000D01*
X68439583Y-50558333D01*
X68472916Y-50525000D01*
X68439583Y-50491666D01*
X68439583Y-50558333D01*
X68772916Y-50725000D02*
X68772916Y-51191666D01*
X68772916Y-50791666D02*
X68806250Y-50758333D01*
X68872916Y-50725000D01*
X68972916Y-50725000D01*
X69039583Y-50758333D01*
X69072916Y-50825000D01*
X69072916Y-51191666D01*
X69706250Y-50725000D02*
X69706250Y-51291666D01*
X69672916Y-51358333D01*
X69639583Y-51391666D01*
X69572916Y-51425000D01*
X69472916Y-51425000D01*
X69406250Y-51391666D01*
X69706250Y-51158333D02*
X69639583Y-51191666D01*
X69506250Y-51191666D01*
X69439583Y-51158333D01*
X69406250Y-51125000D01*
X69372916Y-51058333D01*
X69372916Y-50858333D01*
X69406250Y-50791666D01*
X69439583Y-50758333D01*
X69506250Y-50725000D01*
X69639583Y-50725000D01*
X69706250Y-50758333D01*
X70006250Y-50558333D02*
X70039583Y-50525000D01*
X70106250Y-50491666D01*
X70272916Y-50491666D01*
X70339583Y-50525000D01*
X70372916Y-50558333D01*
X70406250Y-50625000D01*
X70406250Y-50691666D01*
X70372916Y-50791666D01*
X69972916Y-51191666D01*
X70406250Y-51191666D01*
X68139583Y-54191666D02*
X67906250Y-53858333D01*
X67739583Y-54191666D02*
X67739583Y-53491666D01*
X68006250Y-53491666D01*
X68072916Y-53525000D01*
X68106250Y-53558333D01*
X68139583Y-53625000D01*
X68139583Y-53725000D01*
X68106250Y-53791666D01*
X68072916Y-53825000D01*
X68006250Y-53858333D01*
X67739583Y-53858333D01*
X68439583Y-54191666D02*
X68439583Y-53725000D01*
X68439583Y-53491666D02*
X68406250Y-53525000D01*
X68439583Y-53558333D01*
X68472916Y-53525000D01*
X68439583Y-53491666D01*
X68439583Y-53558333D01*
X68772916Y-53725000D02*
X68772916Y-54191666D01*
X68772916Y-53791666D02*
X68806250Y-53758333D01*
X68872916Y-53725000D01*
X68972916Y-53725000D01*
X69039583Y-53758333D01*
X69072916Y-53825000D01*
X69072916Y-54191666D01*
X69706250Y-53725000D02*
X69706250Y-54291666D01*
X69672916Y-54358333D01*
X69639583Y-54391666D01*
X69572916Y-54425000D01*
X69472916Y-54425000D01*
X69406250Y-54391666D01*
X69706250Y-54158333D02*
X69639583Y-54191666D01*
X69506250Y-54191666D01*
X69439583Y-54158333D01*
X69406250Y-54125000D01*
X69372916Y-54058333D01*
X69372916Y-53858333D01*
X69406250Y-53791666D01*
X69439583Y-53758333D01*
X69506250Y-53725000D01*
X69639583Y-53725000D01*
X69706250Y-53758333D01*
X70406250Y-54191666D02*
X70006250Y-54191666D01*
X70206250Y-54191666D02*
X70206250Y-53491666D01*
X70139583Y-53591666D01*
X70072916Y-53658333D01*
X70006250Y-53691666D01*
X68372916Y-57241666D02*
X68772916Y-57241666D01*
X68572916Y-57941666D02*
X68572916Y-57241666D01*
X69006250Y-57941666D02*
X69006250Y-57475000D01*
X69006250Y-57241666D02*
X68972916Y-57275000D01*
X69006250Y-57308333D01*
X69039583Y-57275000D01*
X69006250Y-57241666D01*
X69006250Y-57308333D01*
X69339583Y-57475000D02*
X69339583Y-58175000D01*
X69339583Y-57508333D02*
X69406250Y-57475000D01*
X69539583Y-57475000D01*
X69606250Y-57508333D01*
X69639583Y-57541666D01*
X69672916Y-57608333D01*
X69672916Y-57808333D01*
X69639583Y-57875000D01*
X69606250Y-57908333D01*
X69539583Y-57941666D01*
X69406250Y-57941666D01*
X69339583Y-57908333D01*
X67756250Y-59308333D02*
X67856250Y-59341666D01*
X68022916Y-59341666D01*
X68089583Y-59308333D01*
X68122916Y-59275000D01*
X68156250Y-59208333D01*
X68156250Y-59141666D01*
X68122916Y-59075000D01*
X68089583Y-59041666D01*
X68022916Y-59008333D01*
X67889583Y-58975000D01*
X67822916Y-58941666D01*
X67789583Y-58908333D01*
X67756250Y-58841666D01*
X67756250Y-58775000D01*
X67789583Y-58708333D01*
X67822916Y-58675000D01*
X67889583Y-58641666D01*
X68056250Y-58641666D01*
X68156250Y-58675000D01*
X68556250Y-59341666D02*
X68489583Y-59308333D01*
X68456250Y-59241666D01*
X68456250Y-58641666D01*
X69089583Y-59308333D02*
X69022916Y-59341666D01*
X68889583Y-59341666D01*
X68822916Y-59308333D01*
X68789583Y-59241666D01*
X68789583Y-58975000D01*
X68822916Y-58908333D01*
X68889583Y-58875000D01*
X69022916Y-58875000D01*
X69089583Y-58908333D01*
X69122916Y-58975000D01*
X69122916Y-59041666D01*
X68789583Y-59108333D01*
X69689583Y-59308333D02*
X69622916Y-59341666D01*
X69489583Y-59341666D01*
X69422916Y-59308333D01*
X69389583Y-59241666D01*
X69389583Y-58975000D01*
X69422916Y-58908333D01*
X69489583Y-58875000D01*
X69622916Y-58875000D01*
X69689583Y-58908333D01*
X69722916Y-58975000D01*
X69722916Y-59041666D01*
X69389583Y-59108333D01*
X69956250Y-58875000D02*
X70122916Y-59341666D01*
X70289583Y-58875000D01*
X70822916Y-59308333D02*
X70756250Y-59341666D01*
X70622916Y-59341666D01*
X70556250Y-59308333D01*
X70522916Y-59241666D01*
X70522916Y-58975000D01*
X70556250Y-58908333D01*
X70622916Y-58875000D01*
X70756250Y-58875000D01*
X70822916Y-58908333D01*
X70856250Y-58975000D01*
X70856250Y-59041666D01*
X70522916Y-59108333D01*
M02*
