M48
; DRILL file {KiCad (5.1.4)-1} date 12/24/2020 4:56:41 PM
; FORMAT={-:-/ absolute / inch / decimal}
; #@! TF.CreationDate,2020-12-24T16:56:41-08:00
; #@! TF.GenerationSoftware,Kicad,Pcbnew,(5.1.4)-1
FMAT,2
INCH
T1C0.0157
T2C0.0354
T3C0.0394
T4C0.0409
T5C0.0433
T6C0.0512
T7C0.0579
T8C0.0315
T9C0.0689
T10C0.1200
T11C0.1570
%
G90
G05
T1
X-1.4062Y-2.9688
X-0.875Y-2.9688
X-0.335Y-2.7487
X-0.335Y-3.4337
X-0.255Y-2.7487
X-0.255Y-3.4337
X-0.2188Y-2.9688
X-0.0312Y-3.625
X2.3125Y-2.9688
X2.5Y-3.625
T3
X0.485Y-3.2215
X0.485Y-3.5285
X2.1725Y-4.7215
X2.1725Y-5.0285
X-0.4062Y-3.2215
X-0.4062Y-3.5285
X1.8912Y-2.4715
X1.8912Y-2.7785
X2.8287Y-3.2215
X2.8287Y-3.5285
X1.1412Y-2.4715
X1.1412Y-2.7785
X2.4537Y-3.9715
X2.4537Y-4.2785
X3.9537Y-3.9715
X3.9537Y-4.2785
X0.3912Y-2.4715
X0.3912Y-2.7785
X3.6725Y-4.7215
X3.6725Y-5.0285
X-1.2962Y-3.2215
X-1.2962Y-3.5285
X1.3287Y-3.2215
X1.3287Y-3.5285
X-1.12Y-3.6837
X-1.12Y-3.7822
X-1.12Y-3.8845
X3.5787Y-3.2215
X3.5787Y-3.5285
X-0.4062Y-2.4715
X-0.4062Y-2.7785
X2.0787Y-3.2215
X2.0787Y-3.5285
X-1.2962Y-2.4715
X-1.2962Y-2.7785
X4.1413Y-2.4715
X4.1413Y-2.7785
X0.485Y-4.7215
X0.485Y-5.0285
X-1.2962Y-3.9715
X-1.2962Y-4.2785
X3.3912Y-2.4715
X3.3912Y-2.7785
X1.3287Y-4.7215
X1.3287Y-5.0285
X3.2037Y-3.9715
X3.2037Y-4.2785
X4.3288Y-3.2215
X4.3288Y-3.5285
X-1.2962Y-4.7215
X-1.2962Y-5.0285
X4.7038Y-3.9715
X4.7038Y-4.2785
X0.6725Y-3.9715
X0.6725Y-4.2785
X2.6412Y-2.4715
X2.6412Y-2.7785
X-0.4062Y-3.9715
X-0.4062Y-4.2785
X-0.4062Y-4.7215
X-0.4062Y-5.0285
X1.7037Y-3.9715
X1.7037Y-4.2785
T4
X3.2937Y-5.075
X3.3937Y-5.075
T5
X-1.175Y-1.945
X-1.175Y-2.045
X-1.175Y-2.145
X-1.175Y-2.245
X-1.175Y-2.345
X-1.175Y-2.445
X-1.175Y-2.545
X-1.175Y-2.645
X-1.175Y-2.745
X-1.175Y-2.845
X-1.175Y-2.945
X-1.175Y-3.045
X-0.575Y-1.945
X-0.575Y-2.045
X-0.575Y-2.145
X-0.575Y-2.245
X-0.575Y-2.345
X-0.575Y-2.445
X-0.575Y-2.545
X-0.575Y-2.645
X-0.575Y-2.745
X-0.575Y-2.845
X-0.575Y-2.945
X-0.575Y-3.045
T6
X-0.5342Y-3.75
X-0.2783Y-3.75
T7
X-1.775Y-2.525
X-1.525Y-2.425
X-1.025Y-4.025
X-0.775Y-3.925
X-1.025Y-2.525
X-0.775Y-2.425
X2.9125Y-2.525
X3.1625Y-2.425
X3.475Y-4.025
X3.725Y-3.925
X0.6625Y-2.525
X0.9125Y-2.425
X0.0062Y-4.775
X0.2562Y-4.675
X0.0062Y-3.275
X0.2562Y-3.175
X3.6625Y-2.525
X3.9125Y-2.425
X1.975Y-4.025
X2.225Y-3.925
X-1.775Y-3.275
X-1.525Y-3.175
X2.1625Y-2.525
X2.4125Y-2.425
X3.1938Y-4.775
X3.4438Y-4.675
X2.725Y-4.025
X2.975Y-3.925
X4.225Y-4.025
X4.475Y-3.925
X3.1Y-3.275
X3.35Y-3.175
X1.6Y-3.275
X1.85Y-3.175
X2.35Y-3.275
X2.6Y-3.175
X-0.0875Y-2.525
X0.1625Y-2.425
X-1.025Y-3.275
X-0.775Y-3.175
X1.225Y-4.025
X1.475Y-3.925
X-1.775Y-4.775
X-1.525Y-4.675
X-1.775Y-4.025
X-1.525Y-3.925
X0.85Y-4.775
X1.1Y-4.675
X1.6937Y-4.775
X1.9437Y-4.675
X3.85Y-3.275
X4.1Y-3.175
X0.1938Y-4.025
X0.4437Y-3.925
X1.4125Y-2.525
X1.6625Y-2.425
X0.85Y-3.275
X1.1Y-3.175
X-1.025Y-4.775
X-0.775Y-4.675
T8
X2.7188Y-1.938
X2.7188Y-2.2136
T9
X-1.075Y-3.375
X-0.675Y-3.375
X1.175Y-4.125
X1.575Y-4.125
X-1.825Y-4.875
X-1.425Y-4.875
X-1.825Y-4.125
X-1.425Y-4.125
X0.8Y-4.875
X1.2Y-4.875
X1.6438Y-4.875
X2.0437Y-4.875
X3.8Y-3.375
X4.2Y-3.375
X0.1437Y-4.125
X0.5437Y-4.125
X1.3625Y-2.625
X1.7625Y-2.625
X0.8Y-3.375
X1.2Y-3.375
X-1.075Y-4.875
X-0.675Y-4.875
X-1.825Y-2.625
X-1.425Y-2.625
X-1.075Y-4.125
X-0.675Y-4.125
X-1.075Y-2.625
X-0.675Y-2.625
X2.8625Y-2.625
X3.2625Y-2.625
X3.425Y-4.125
X3.825Y-4.125
X0.6125Y-2.625
X1.0125Y-2.625
X-0.0437Y-4.875
X0.3563Y-4.875
X-0.0437Y-3.375
X0.3563Y-3.375
X3.6125Y-2.625
X4.0125Y-2.625
X1.925Y-4.125
X2.325Y-4.125
X-1.825Y-3.375
X-1.425Y-3.375
X2.1125Y-2.625
X2.5125Y-2.625
X3.1437Y-4.875
X3.5437Y-4.875
X2.675Y-4.125
X3.075Y-4.125
X4.175Y-4.125
X4.575Y-4.125
X3.05Y-3.375
X3.45Y-3.375
X1.55Y-3.375
X1.95Y-3.375
X2.3Y-3.375
X2.7Y-3.375
X-0.1375Y-2.625
X0.2625Y-2.625
T10
X2.8737Y-4.6
X3.8137Y-4.6
T11
X1.75Y-3.375
X2.5Y-3.375
X0.0625Y-2.625
X-0.875Y-3.375
X1.375Y-4.125
X-1.625Y-4.875
X-1.625Y-4.125
X1.0Y-4.875
X1.8438Y-4.875
X4.0Y-3.375
X0.3438Y-4.125
X1.5625Y-2.625
X1.0Y-3.375
X-0.875Y-4.875
X-1.625Y-2.625
X-0.875Y-4.125
X-0.875Y-2.625
X3.0625Y-2.625
X3.625Y-4.125
X0.8125Y-2.625
X0.1562Y-4.875
X0.1562Y-3.375
X3.8125Y-2.625
X2.125Y-4.125
X-1.625Y-3.375
X2.3125Y-2.625
X2.8737Y-5.2
X3.3438Y-4.875
X3.8137Y-5.2
X2.875Y-4.125
X4.375Y-4.125
X3.25Y-3.375
T2
G00X2.6282Y-1.9931
M15
G01X2.6282Y-2.0089
M16
G05
G00X2.6282Y-2.1112
M15
G01X2.6282Y-2.127
M16
G05
G00X2.6282Y-2.2687
M15
G01X2.6282Y-2.2844
M16
G05
G00X2.8093Y-2.312
M15
G01X2.8093Y-2.3278
M16
G05
T0
M30
