G04 #@! TF.GenerationSoftware,KiCad,Pcbnew,(5.1.4)-1*
G04 #@! TF.CreationDate,2020-12-24T16:56:25-08:00*
G04 #@! TF.ProjectId,fracture-pcb-final,66726163-7475-4726-952d-7063622d6669,rev?*
G04 #@! TF.SameCoordinates,Original*
G04 #@! TF.FileFunction,Paste,Bot*
G04 #@! TF.FilePolarity,Positive*
%FSLAX46Y46*%
G04 Gerber Fmt 4.6, Leading zero omitted, Abs format (unit mm)*
G04 Created by KiCad (PCBNEW (5.1.4)-1) date 2020-12-24 16:56:25*
%MOMM*%
%LPD*%
G04 APERTURE LIST*
%ADD10R,1.200000X1.600000*%
G04 APERTURE END LIST*
D10*
X81375250Y-106175000D03*
X81375250Y-103375000D03*
X62325250Y-106175000D03*
X62325250Y-103375000D03*
X55181500Y-125225000D03*
X55181500Y-122425000D03*
X33750250Y-125225000D03*
X33750250Y-122425000D03*
X90900250Y-87125000D03*
X90900250Y-84325000D03*
X86137750Y-68075000D03*
X86137750Y-65275000D03*
X105187750Y-68075000D03*
X105187750Y-65275000D03*
X71850250Y-87125000D03*
X71850250Y-84325000D03*
X93281500Y-125225000D03*
X93281500Y-122425000D03*
X52800250Y-87125000D03*
X52800250Y-84325000D03*
X67087750Y-68075000D03*
X67087750Y-65275000D03*
X100425250Y-106175000D03*
X100425250Y-103375000D03*
X28987750Y-68075000D03*
X28987750Y-65275000D03*
X12319000Y-125225000D03*
X12319000Y-122425000D03*
X-10318750Y-106175000D03*
X-10318750Y-103375000D03*
X-10318750Y-125225000D03*
X-10318750Y-122425000D03*
X-10318750Y-87125000D03*
X-10318750Y-84325000D03*
X-10318750Y-68075000D03*
X-10318750Y-65275000D03*
X-32924750Y-125225000D03*
X-32924750Y-122425000D03*
X-32924750Y-68075000D03*
X-32924750Y-65275000D03*
X43275250Y-106175000D03*
X43275250Y-103375000D03*
X33750250Y-87125000D03*
X33750250Y-84325000D03*
X17081500Y-106175000D03*
X17081500Y-103375000D03*
X12319000Y-87125000D03*
X12319000Y-84325000D03*
X-32924750Y-87125000D03*
X-32924750Y-84325000D03*
X-32924750Y-106175000D03*
X-32924750Y-103375000D03*
X48037750Y-68075000D03*
X48037750Y-65275000D03*
X9937750Y-68075000D03*
X9937750Y-65275000D03*
X109950250Y-87125000D03*
X109950250Y-84325000D03*
X119475250Y-106175000D03*
X119475250Y-103375000D03*
M02*
