M48
; DRILL file {KiCad (5.1.4)-1} date 12/24/2020 4:57:35 PM
; FORMAT={-:-/ absolute / inch / decimal}
; #@! TF.CreationDate,2020-12-24T16:57:35-08:00
; #@! TF.GenerationSoftware,Kicad,Pcbnew,(5.1.4)-1
FMAT,2
INCH
T1C0.0157
T2C0.0354
T3C0.0394
T4C0.0433
T5C0.0512
T6C0.0579
T7C0.0315
T8C0.0689
T9C0.1200
T10C0.1570
%
G90
G05
T1
X6.3438Y-2.0
X10.3125Y-2.8438
X10.3125Y-3.0625
X10.375Y-2.4062
X10.5625Y-2.9062
X11.1562Y-2.625
T3
X7.765Y-2.4715
X7.765Y-2.7785
X8.705Y-3.2215
X8.705Y-3.5285
X6.265Y-2.4715
X6.265Y-2.7785
X9.17Y-4.7215
X9.17Y-5.0285
X6.83Y-3.9715
X6.83Y-4.2785
X10.955Y-4.909
X10.955Y-5.216
X8.515Y-2.4715
X8.515Y-2.7785
X11.705Y-4.909
X11.705Y-5.216
X5.705Y-3.2215
X5.705Y-3.5285
X9.455Y-3.2215
X9.455Y-3.5285
X7.205Y-3.2215
X7.205Y-3.5285
X11.89Y-3.2215
X11.89Y-3.5285
X9.265Y-2.4715
X9.265Y-2.7785
X7.015Y-2.4715
X7.015Y-2.7785
X6.17Y-4.7215
X6.17Y-5.0285
X7.58Y-3.9715
X7.58Y-4.2785
X10.015Y-2.4715
X10.015Y-2.7785
X7.955Y-3.2215
X7.955Y-3.5285
X10.205Y-4.909
X10.205Y-5.216
X8.325Y-4.7215
X8.325Y-5.0285
X11.89Y-2.4715
X11.89Y-2.7785
X11.2188Y-3.6875
X11.2188Y-3.7859
X11.2188Y-3.8883
X6.08Y-3.9715
X6.08Y-4.2785
X10.955Y-4.159
X10.955Y-4.466
X8.33Y-3.9715
X8.33Y-4.2785
X7.485Y-4.7215
X7.485Y-5.0285
X11.89Y-3.9715
X11.89Y-4.2785
X6.455Y-3.2215
X6.455Y-3.5285
X11.0Y-2.4715
X11.0Y-2.7785
X5.515Y-2.4715
X5.515Y-2.7785
X9.92Y-3.9715
X9.92Y-4.2785
X9.08Y-3.9715
X9.08Y-4.2785
X10.485Y-3.2215
X10.485Y-3.5285
T4
X10.135Y-1.945
X10.135Y-2.045
X10.135Y-2.145
X10.135Y-2.245
X10.135Y-2.345
X10.135Y-2.445
X10.135Y-2.545
X10.135Y-2.645
X10.135Y-2.745
X10.135Y-2.845
X10.135Y-2.945
X10.135Y-3.045
X10.735Y-1.945
X10.735Y-2.045
X10.735Y-2.145
X10.735Y-2.245
X10.735Y-2.345
X10.735Y-2.445
X10.735Y-2.545
X10.735Y-2.645
X10.735Y-2.745
X10.735Y-2.845
X10.735Y-2.945
X10.735Y-3.045
T5
X10.872Y-2.295
X11.128Y-2.295
T6
X11.4125Y-2.525
X11.6625Y-2.425
X6.35Y-4.025
X6.6Y-3.925
X9.4437Y-4.025
X9.6937Y-3.925
X5.0375Y-2.525
X5.2875Y-2.425
X7.0062Y-4.775
X7.2562Y-4.675
X10.0062Y-3.275
X10.2562Y-3.175
X7.2875Y-2.525
X7.5375Y-2.425
X11.4125Y-4.025
X11.6625Y-3.925
X8.225Y-3.275
X8.475Y-3.175
X7.85Y-4.025
X8.1Y-3.925
X7.85Y-4.775
X8.1Y-4.675
X9.5375Y-2.525
X9.7875Y-2.425
X7.1Y-4.025
X7.35Y-3.925
X8.0375Y-2.525
X8.2875Y-2.425
X6.725Y-3.275
X6.975Y-3.175
X11.4125Y-3.275
X11.6625Y-3.175
X11.225Y-4.9625
X11.475Y-4.8625
X10.475Y-4.2125
X10.725Y-4.1125
X8.7875Y-2.525
X9.0375Y-2.425
X9.725Y-4.9625
X9.975Y-4.8625
X5.7875Y-2.525
X6.0375Y-2.425
X5.225Y-3.275
X5.475Y-3.175
X8.6Y-4.025
X8.85Y-3.925
X10.475Y-4.9625
X10.725Y-4.8625
X8.975Y-3.275
X9.225Y-3.175
X8.6937Y-4.775
X8.9437Y-4.675
X5.6937Y-4.775
X5.9437Y-4.675
X5.6Y-4.025
X5.85Y-3.925
X7.475Y-3.275
X7.725Y-3.175
X10.2875Y-2.525
X10.5375Y-2.425
X6.5375Y-2.525
X6.7875Y-2.425
X5.975Y-3.275
X6.225Y-3.175
T7
X6.3438Y-1.938
X6.3438Y-2.2136
T8
X11.3625Y-2.625
X11.7625Y-2.625
X6.3Y-4.125
X6.7Y-4.125
X9.3937Y-4.125
X9.7937Y-4.125
X4.9875Y-2.625
X5.3875Y-2.625
X6.9562Y-4.875
X7.3563Y-4.875
X9.9562Y-3.375
X10.3562Y-3.375
X7.2375Y-2.625
X7.6375Y-2.625
X11.3625Y-4.125
X11.7625Y-4.125
X8.175Y-3.375
X8.575Y-3.375
X7.8Y-4.125
X8.2Y-4.125
X7.8Y-4.875
X8.2Y-4.875
X9.4875Y-2.625
X9.8875Y-2.625
X7.05Y-4.125
X7.45Y-4.125
X7.9875Y-2.625
X8.3875Y-2.625
X6.675Y-3.375
X7.075Y-3.375
X11.3625Y-3.375
X11.7625Y-3.375
X11.175Y-5.0625
X11.575Y-5.0625
X10.425Y-4.3125
X10.825Y-4.3125
X8.7375Y-2.625
X9.1375Y-2.625
X9.675Y-5.0625
X10.075Y-5.0625
X5.7375Y-2.625
X6.1375Y-2.625
X5.175Y-3.375
X5.575Y-3.375
X8.55Y-4.125
X8.95Y-4.125
X10.425Y-5.0625
X10.825Y-5.0625
X8.925Y-3.375
X9.325Y-3.375
X8.6437Y-4.875
X9.0437Y-4.875
X5.6437Y-4.875
X6.0438Y-4.875
X5.55Y-4.125
X5.95Y-4.125
X7.425Y-3.375
X7.825Y-3.375
X10.2375Y-2.625
X10.6375Y-2.625
X6.4875Y-2.625
X6.8875Y-2.625
X5.925Y-3.375
X6.325Y-3.375
T9
X5.375Y-4.6
X6.3125Y-4.6
T10
X6.6875Y-2.625
X6.125Y-3.375
X11.5625Y-2.625
X6.5Y-4.125
X9.5938Y-4.125
X5.1875Y-2.625
X7.1562Y-4.875
X10.1562Y-3.375
X7.4375Y-2.625
X11.5625Y-4.125
X8.375Y-3.375
X8.0Y-4.125
X8.0Y-4.875
X9.6875Y-2.625
X7.25Y-4.125
X8.1875Y-2.625
X6.875Y-3.375
X11.5625Y-3.375
X11.375Y-5.0625
X10.625Y-4.3125
X8.9375Y-2.625
X9.875Y-5.0625
X5.9375Y-2.625
X5.375Y-3.375
X8.75Y-4.125
X10.625Y-5.0625
X9.125Y-3.375
X8.8438Y-4.875
X5.375Y-5.2
X5.8438Y-4.875
X6.3125Y-5.2
X5.75Y-4.125
X7.625Y-3.375
X10.4375Y-2.625
T2
G00X6.2532Y-1.9931
M15
G01X6.2532Y-2.0089
M16
G05
G00X6.2532Y-2.1112
M15
G01X6.2532Y-2.127
M16
G05
G00X6.2532Y-2.2687
M15
G01X6.2532Y-2.2844
M16
G05
G00X6.4343Y-2.312
M15
G01X6.4343Y-2.3278
M16
G05
T0
M30
